<svg version="1.2" xmlns="http://www.w3.org/2000/svg" viewBox="0 0 380 157" width="380" height="157">
	<g>
		<g id="cloud">
			<g id="cloud-inner-lines">
				<path
					d="m288.5 38v-0.1q-0.2-0.9-1-1.4-3.1-1.7-6.6-2.5-2.9-0.7-5.6 0.6-1.1 0.5-2.2 1.1-3.4 2.1-6.1 5.2l-0.2 0.3-0.3 0.3q-3.6 3.2-8.3 4.2-1 0.2-2 0.2-1-0.1-2-0.4-0.9-0.3-1.8-0.8-0.8-0.6-1.5-1.4-1-1.1-1.8-2.3l-0.4-0.5c-0.3-0.4-0.6-0.9-0.9-1.3l-0.2-0.2c-0.3-0.5-0.6-1-1-1.4q-1.4-2-3.3-3.6-1.8-1.5-4.2-2.1-2.3-0.6-4.7-0.1l0.3-0.3c2.7-4.1 2.5-8.3-0.4-12q-1.5-1.9-3.5-3.1-3-1.9-6.4-2.6-3.4-0.7-6.8-0.2-2.3 0.2-4.3 1.4-2 1.1-3.3 3-0.8-3.9-3.4-6.9-2.3-2.7-5.3-4.8-2.6-1.8-5.6-3.2-3-1.3-6.2-2.1-3.1-0.7-6.4-0.8-3.2-0.2-6.4 0.3-5.5 0.7-10.1 3.7-3.8 2.6-6.8 6.2-3 3.5-5 7.8-1.3 2.7-1.5 5.7-0.3 3.1 0.5 6-2.9 0-5.8 0.8-4.2 1.1-7.5 4-3.9 3.6-5.5 8.8-0.2 0.5-0.3 0.9-0.3-0.2-0.6-0.3-0.9-0.5-2-0.8-1.1-0.4-2.2-0.5-1.1-0.2-2.2-0.2-1.1 0.1-2.2 0.3-1.1 0.2-2.1 0.6-1 0.4-2 0.9-1 0.5-1.8 1.2-0.9 0.7-1.6 1.6c-0.7 0.7-1.2 1.5-1.7 2.2l-0.1 0.1q-0.5 0.6-0.8 1.2c-0.4 0.6-0.8 1.2-1.2 1.7q-1 1.2-2.2 2.3-1.3 1.3-3.1 1.6-2.9 0.6-5.6-0.6c-1.1-0.5-2.2-0.9-3.3-1.3l-0.5-0.2q-2.5-0.9-5.1 0l-4.3 1.5 4 2.2q2.1 1.3 3 3.5l0.4 0.8 0.1 0.2 0.4 0.9q0.9 1.9 2.2 3.6 2.2 2.7 5.6 3.3 3.3 0.5 6.5-0.7 2.1-0.8 3.9-2 0.8-0.4 1.6-1l0.4-0.3 2-1.2q1.8-1.1 3.7-1.8 2-0.8 4.1-0.5 2.6 0.3 5 1.5 1 0.5 2.1 1.1l1.6 3.2q4.2 4.4 9.2 7.9 4.1 2.8 9 2.8 1.9 0 3.8-0.4 4.5-0.9 7.6-4.3c0.4-0.5 0.8-1 1.3-1.5l0.3-0.4q0.4 0.4 0.8 0.7l0.1 0.1q1 0.9 2.2 1.6 1.8 1.2 4 1.5 2.2 0.2 4.3-0.5 4.3-1.4 7-5 2.4 3 5.8 4.7 5.3 2.6 11.2 2.6 1.5 0 3-0.2 4.5-0.4 8.3-3 4.1-2.9 6.7-7.2 0.3 1 1 1.9 1.3 1.9 3.1 3.3 1.9 1.4 4.1 2.1 2 0.7 4 0.9 2 0.1 4-0.2 2-0.4 3.8-1.2 1.9-0.8 3.5-2 3.9-3.1 6.1-7.6 0.2-0.2 0.3-0.5 1.2 0.8 2.7 1 2.6 0.5 5.2 0 2.7-0.5 5-1.9 0.8-0.4 1.5-1l0.1-0.1q0.7-0.5 1.2-1.2 0.5-0.6 0.8-1.5 0.3-0.8 0.3-1.6 0-0.9-0.2-1.7 0-0.3 0-0.6 0-0.4 0.2-0.9c0.1-0.5 0.3-0.6 0.6-0.6q0.7-0.1 1.4-0.1h1.7q1.2 0.1 2.2-0.4 1-0.5 1.6-1.4 0.7-0.9 1-1.8c0.3-0.8 0.5-1.6 0.7-2.4q0.1-0.5 0.2-1v-0.2q0.1-0.7 0.3-1.3 0.3-1.1 0.9-2.1 0.7-1 1.6-1.8 1-0.7 2.1-1.1 1.2-0.4 2.3-0.4h4.7zm-102.7 31.7q-2.3 3.2-6 4.4-1.7 0.6-3.4 0.4-1.8-0.2-3.3-1.2-1.1-0.7-2.1-1.5-0.6-0.5-0.9-1.2-0.1-0.6-0.7-0.7-0.6-0.1-1 0.3-0.4 0.4-0.7 0.9c-0.6 0.7-1.2 1.4-1.8 2q-2.7 3-6.6 3.8-2.9 0.7-5.8 0.1-2.9-0.5-5.4-2.1-4.8-3.4-8.9-7.8c0.3-0.2 0.5 0 0.7 0.1 1.4 0.7 2.7 1.4 4.2 2q3.1 1.3 6.6 1.3 3.4 0.1 6.6-1.2 2.1-0.7 3.9-2.1 0.4-0.4 0.8-0.8 0.2-0.2 0.2-0.5 0-0.4-0.2-0.6-0.2-0.3-0.5-0.4-0.3-0.1-0.6 0-0.3 0.2-0.5 0.3-2.2 1.8-4.9 2.6-2.7 0.9-5.5 0.6-2.8 0-5.3-1.1-2.3-1.1-4.6-2.3c-1.7-0.8-3.4-1.8-5.2-2.6q-2.7-1.4-5.7-1.7-2.6-0.3-5 0.6-2.1 0.8-4 2c-1.3 0.8-2.7 1.7-4 2.5q-1.7 1.1-3.6 1.8-2.6 1-5.4 0.6-2.7-0.5-4.4-2.6-1.2-1.4-2-3.2-0.4-0.9-0.8-1.9-1.2-2.8-3.9-4.3 1.9-0.7 3.8-0.1c1.2 0.5 2.4 0.9 3.6 1.5q3.3 1.5 6.8 0.7 2.4-0.4 4.1-2.1 1.3-1.2 2.4-2.5c0.7-1 1.4-2 2.1-3 0.5-0.8 1.1-1.5 1.7-2.2q1.2-1.4 2.9-2.3 1.6-1 3.5-1.3 1.8-0.4 3.7-0.1 1.9 0.3 3.6 1.1c0.4 0.2 0.7 0.5 1.1 0.7 0 0.6 0 1 0 1.5q0 3.2 1.6 6 1.3 2.2 3.4 3.7 2.1 1.5 4.6 1.9 3.6 0.7 7-0.2 1.6-0.4 2.9-1.3 0.9-0.6 1.6-1.4 0.7-0.9 1.1-1.9 0.5-1 0.6-2.1 0.1-1-0.1-2.1-0.2-0.7-0.4-1.3-0.3-0.6-0.7-1.2-0.4-0.5-0.9-1-0.5-0.5-1.1-0.9-0.6-0.3-1.2-0.6-0.6-0.2-1.3-0.4-0.7-0.1-1.4-0.1-0.7 0-1.3 0.1-1.3 0.3-2.4 1.1-1 0.8-1.6 1.9-0.2 0.3-0.3 0.5-0.1 0.4 0.1 0.7 0.1 0.4 0.5 0.5 0.3 0.1 0.6 0.1 0.3-0.1 0.5-0.3 0.2-0.2 0.4-0.5 0.3-0.6 0.8-1 0.5-0.5 1.1-0.8 0.6-0.3 1.3-0.3 0.7-0.1 1.4 0.1 1.4 0.2 2.5 1.2 1.1 0.9 1.4 2.4 0.3 0.7 0.2 1.5 0 0.8-0.3 1.5-0.2 0.8-0.7 1.4-0.5 0.6-1.1 1.1-1.3 1-2.9 1.3-4.1 1.1-8-0.5-1.1-0.5-2.1-1.2-1-0.7-1.7-1.7-0.8-0.9-1.3-2-0.5-1.1-0.6-2.3-0.6-3 0.3-5.9 1.4-4.6 5-7.9 2.9-2.6 6.7-3.5 2.8-0.8 5.8-0.8 0.3 0.4 0.5 0.9c3 6.9 8.5 10.9 15.9 12.5q5.6 1.2 11.2-0.2l1.1-0.3q-0.2 0.5-0.4 0.9-1.4 2.4-2 5.2-0.6 2.8-0.4 5.6 0.5 6.6 4.2 12.1c0.1 0.3 0.3 0.5 0.4 0.8q0 0.1-0.1 0.3zm99.9-31.1q-1.6 0-3 0.5-1.4 0.5-2.6 1.4-1.2 0.9-2.1 2.2-0.8 1.3-1.2 2.7c-0.3 0.9-0.4 1.8-0.6 2.6-0.2 0.9-0.3 1.5-0.6 2.2q-0.2 0.6-0.6 1.2-0.3 0.5-0.9 0.8-0.6 0.3-1.2 0.3c-0.6 0-1.2-0.1-1.8-0.1q-0.9 0-1.7 0.1-0.9 0.1-1.5 0.6-0.7 0.6-0.9 1.4-0.2 0.7-0.2 1.4 0 0.6 0.1 1.2 0.2 0.6 0.2 1.1-0.1 0.6-0.3 1.1-0.2 0.6-0.5 1-0.4 0.4-0.8 0.7-0.7 0.6-1.4 1-2 1.2-4.3 1.6-2.3 0.4-4.5 0.1-0.9-0.2-1.7-0.6-0.8-0.4-1.4-1.1-0.6-0.6-1-1.4-0.3-0.9-0.4-1.8c-0.3-3.6 2.6-4.8 5.1-4.3q0.7 0.2 1.2 0.7 0.6 0.6 0.7 1.3 0.2 1 0.2 1.9 0 0.4 0.1 0.8 0.2 0.6 0.8 0.6 0.6 0.1 0.9-0.5 0-0.2 0.1-0.4 0.2-1.8-0.5-3.6-0.2-0.6-0.7-1.1-0.4-0.6-1-0.9-0.5-0.4-1.2-0.6-0.6-0.2-1.3-0.2-0.9-0.1-1.8 0.1-0.9 0.2-1.8 0.7-0.8 0.4-1.4 1.2-0.6 0.7-1 1.6-0.3 0.9-0.3 1.8-0.2 2.3 1 4.3 0.3 0.5 0.7 1.1c-0.2 0.3-0.3 0.6-0.5 1q-2 4-5.5 6.8-1.4 1.1-3.1 1.8-1.6 0.7-3.4 1-1.7 0.3-3.5 0.2-1.8-0.2-3.5-0.7-3.9-1.3-6.2-4.7-1-1.4-1-3.1 0-0.4 0.1-0.8c0.3 0 0.7-0.1 1 0q2.7 0.1 5.3-0.6 2.6-0.7 4.9-2.2 2.3-1.4 4.2-3.3 0.4-0.3 0.7-0.7 0.2-0.6-0.2-1-0.5-0.5-1-0.2-0.5 0.3-0.9 0.7-1.9 1.8-4.2 3.2-2.6 1.5-5.6 2-3 0.5-5.9-0.4-1.3-0.4-2.4-1.4-1.7-1.3-2-3.5 0-0.3-0.1-0.7-0.1-0.3-0.4-0.5-0.3-0.2-0.6-0.1-0.3 0-0.6 0.2-0.2 0.2-0.2 0.5-0.1 0.7 0 1.3 0.4 1.7 1.5 3.1 1 1.4 2.6 2.2c0.6 0.3 1.1 0.5 1.7 0.8q0 0.3-0.1 0.5-2.4 5.4-7.3 8.8-3.3 2.3-7.3 2.7-3.4 0.4-6.7-0.2-3.3-0.6-6.4-2.1-3-1.5-5.2-4.1-1.6-1.9-2.8-4.1-1.2-2.3-1.9-4.8-0.7-2.4-0.9-5-0.2-3.2 0.8-6.2 1-3 3.1-5.4 0.9-1.1 2.1-1.8 0.5-0.3 1-0.7 2.5-2 5.7-2.5 4.7-1 9.4 0 3.3 0.6 5.9 2.7 1.5 1.1 2.4 2.7 0.9 1.6 1 3.4 0.3 2.1-0.5 4-1.3 3.7-4.6 5.8-1.5 1-3.3 1.3-1.7 0.3-3.5 0-0.6-0.1-1.1-0.3-0.6-0.3-1.1-0.6-0.5-0.4-0.9-0.8-0.4-0.5-0.7-1-0.2-0.6-0.4-1.2-0.1-0.5-0.1-1.1 0-0.7 0.2-1.2 0.1-0.6 0.4-1.2 0.3-0.6 0.9-1.1 0.5-0.6 1.1-0.9 0.7-0.3 1.4-0.4 0.8 0 1.5 0.1 0.5 0.1 0.9 0.5 0.4 0.4 0.3 1 0 0.5-0.3 0.8-0.3 0.4-0.8 0.4-0.3 0-0.6 0-0.6 0.2-0.8 0.8 0 0.6 0.5 0.9 0.7 0.4 1.5 0.2 1-0.3 1.6-1 0.7-0.7 0.8-1.7 0.2-1-0.3-1.9-0.4-0.9-1.3-1.4-0.8-0.5-1.8-0.6-1.2-0.1-2.3 0.2-1.1 0.3-2.1 0.9-0.9 0.7-1.6 1.7-0.6 0.9-0.9 2-0.2 0.7-0.2 1.4-0.1 0.7 0 1.4 0.1 0.7 0.3 1.3 0.3 0.7 0.6 1.3 0.4 0.6 0.8 1.1 0.5 0.5 1 0.9 0.6 0.4 1.2 0.7 0.6 0.3 1.3 0.5 2.1 0.6 4.3 0.3 2.2-0.3 4.1-1.5 2.3-1.3 3.9-3.4 1.6-2.2 2.2-4.7 0.4-1.3 0.4-2.6 0-1.3-0.3-2.6-0.3-1.3-0.9-2.4-0.7-1.2-1.6-2.1-3-3.4-7.4-4.4-5.4-1.3-10.8-0.2l-1 0.3q-0.2 0-0.3 0c-0.3-0.3 0-0.5 0.1-0.8q1.4-3.1 1.4-6.5-0.1-3.4-1.6-6.4-0.9-1.9-2.3-3.3-0.8-0.9-1.9-1.6-1.1-0.7-2.3-1-1.2-0.4-2.5-0.4-1.2-0.1-2.4 0.2-2 0.4-3.8 1.5-2.4 1.4-3.5 4-0.5 1.1-0.3 2.3 0.2 1.2 0.9 2.1 0.2 0.3 0.5 0.6 0.3 0.1 0.6 0.1 0.3 0 0.6-0.1 0.2-0.2 0.3-0.6 0.1-0.3-0.1-0.6-0.2-0.3-0.4-0.6-0.4-0.6-0.5-1.4 0-0.7 0.3-1.4 0.4-0.8 1-1.5 1.9-2 4.6-2.5 1.1-0.3 2.2-0.2 1.2 0 2.3 0.4 1.1 0.4 2 1.1 0.9 0.7 1.6 1.6 1.8 2.3 2.4 5.1 0.8 3.6-0.4 7.1-0.6 2-2 3.5-0.3 0.5-0.7 0.8c-2.1 1.5-4.2 3.1-6.8 3.8q-3.8 1.1-7.8 0.9-4-0.1-7.7-1.6-2-0.8-3.8-2.1-1.9-1.2-3.3-2.8-1.5-1.7-2.5-3.6-1-2-1.6-4.1-0.7-2.6-0.5-5.4 0.2-2.7 1.3-5.2 1.9-4 4.7-7.3 2.8-3.3 6.4-5.8 4.2-2.7 9.2-3.3 3-0.5 6.1-0.4 3.1 0.1 6.1 0.8 2.9 0.7 5.7 2 2.8 1.3 5.3 3 2.8 1.9 5 4.5 1.6 1.7 2.4 3.9 0.8 2.2 0.7 4.5-0.1 2.3-0.4 4.7-0.1 0.5-0.1 1 0 0.3 0.2 0.6 0.3 0.2 0.6 0.2 0.3 0.1 0.6-0.1 0.3-0.2 0.4-0.5 0.1-0.3 0.1-0.6c0.2-1 0.4-2 0.5-2.9 0.6-4.3 3.4-7 7.8-7.7q3.1-0.5 6.1 0.2 3.1 0.6 5.7 2.3 1.7 1.1 3 2.6c2.5 3.2 2.2 6.6 0.2 9.7q-0.4 0.5-0.9 0.9-0.7 0.6-1.3 1.2-0.3 0.3-0.6 0.6-0.2 0.3-0.2 0.7-0.1 0.4 0.2 0.8 0.2 0.3 0.6 0.5 0.4 0.1 0.8-0.1 0.9-0.2 1.7-0.5 1-0.6 2.2-0.7 1.2-0.2 2.4-0.1 1.2 0.2 2.2 0.7 1.1 0.5 2 1.3 1.7 1.3 3 3.1c0.7 1 1.4 2 2.1 3q1 1.5 2.3 3 0.8 0.9 1.9 1.6 1 0.7 2.2 1.1 1.3 0.4 2.5 0.5 1.3 0 2.6-0.2 5.2-1.2 9.1-4.8 0.4-0.4 0.8-0.8 2.4-2.9 5.6-4.9 1-0.5 2-1 2.1-0.9 4.4-0.4 3.1 0.8 5.9 2.4c0 0 0 0.1 0.1 0.2z" />
			</g>
			<path
				d="m132.3 45.7c-5.8-1.2-10.8 2.6-13.8 7.3-1.9 2.9-3.4 5.8-7.1 6.6-3.7 0.7-7.4-0.9-10.6-2.5-0.5-0.3-0.9 0.5-0.4 0.7 5 2.6 11.9 4.7 16.1-0.3 2.1-2.5 3.3-5.4 5.6-7.7q1-1 2.1-1.7 1.2-0.7 2.5-1.2 1.3-0.4 2.6-0.5 1.4-0.1 2.8 0.1c0.5 0.1 0.7-0.7 0.2-0.8z" />
			<path
				d="m146.1 57.4q3.6 0.9 6.8-0.8 1.3-0.7 2-1.9 0.8-1.3 0.7-2.7c-0.1-3.8-4.7-5.3-7.4-2.9-0.4 0.4 0.3 1 0.7 0.7q0.4-0.5 0.9-0.7 0.5-0.2 1.1-0.3 0.6-0.1 1.2 0.1 0.5 0.1 1 0.4 0.5 0.3 0.9 0.8 0.4 0.5 0.6 1 0.1 0.6 0.1 1.1 0 0.6-0.1 1.2c-0.9 3-5.5 4.1-8.2 3.2-0.5-0.2-0.8 0.7-0.3 0.8z" />
			<path
				d="m139.6 42.6q-1.4 1.6-1.7 3.7-0.4 2 0.3 4c0.2 0.6 1 0.3 0.8-0.2q-0.6-1.8-0.3-3.6 0.3-1.8 1.5-3.3c0.3-0.4-0.3-1.1-0.6-0.6z" />
			<path
				d="m204.8 74.9c-9.4 0.9-17.1-6.4-19.8-14.9-0.2-0.5-1-0.3-0.8 0.2q1 3.5 3 6.5 2 2.9 4.8 5.1 2.8 2.2 6.1 3.2 3.3 1 6.7 0.7c0.6 0 0.6-0.9 0-0.8z" />
			<path
				d="m193.2 5.8q-0.3 0-0.4 0.3-0.1 0.4 0.2 0.5 1.6 0.5 3.2 1.2 1.5 0.8 2.8 1.7 1.4 1 2.6 2.2 1.2 1.2 2.1 2.6 0.9 1.4 1.6 3 0.7 1.5 1.2 3.1 0.4 1.7 0.5 3.3 0.1 1.7 0 3.4c-0.1 0.6 0.8 0.6 0.8 0q0.2-1.7 0.1-3.5-0.2-1.7-0.6-3.4-0.5-1.7-1.2-3.3-0.7-1.6-1.7-3.1-1-1.4-2.2-2.7-1.3-1.2-2.7-2.3-1.4-1-3-1.8-1.6-0.7-3.3-1.2z" />
			<path
				d="m228.2 19.4q2.8 1.3 4.5 3.9c1.2 1.8 1.5 4.5-0.5 5.9-0.4 0.4 0 1.1 0.5 0.8 3.9-3 1-7.9-2.1-10.2q-1.6-1.1-3.3-1.8-1.7-0.7-3.5-1.1-1.9-0.3-3.8-0.2-1.8 0-3.6 0.5-0.2 0.1-0.3 0.2-0.1 0.2-0.1 0.4 0.1 0.2 0.2 0.2 0.2 0.1 0.4 0.1 2.9-0.8 5.9-0.5 3 0.4 5.7 1.8z" />
			<path
				d="m241.3 38.1c0.4 0.4 1-0.2 0.6-0.6-1.8-2.1-4.7-3.7-7.2-1.9-0.5 0.4 0 1.1 0.4 0.8 2.2-1.6 4.7-0.1 6.2 1.7z" />
			<path
				d="m171.4 41.6c3.7 2.4 9.1 1.5 13 0 4-1.5 7.4-4.7 8.2-9q0.3-1.5 0.1-3-0.1-1.5-0.7-2.8-0.6-1.4-1.6-2.5-0.9-1.2-2.2-2c-2.7-1.6-8.3-2.3-9.7 1.4-0.2 0.5 0.7 0.8 0.9 0.2 0.7-2 3.8-2.2 5.7-1.8q2.6 0.4 4.4 2.4 1 1 1.5 2.3 0.6 1.3 0.8 2.6 0.2 1.4 0 2.8-0.2 1.4-0.8 2.6-1.3 2.5-3.4 4.1-2.2 1.7-4.9 2.3c-3.4 1-7.8 1.8-10.9-0.3-0.4-0.3-0.9 0.4-0.4 0.7z" />
			<path
				d="m208.1 57.4q2-1 3.6-2.7 1.5-1.8 2-4.1 0.2-1.1 0.1-2.3-0.1-1.1-0.5-2.2-0.4-1-1.1-2-0.6-0.9-1.5-1.6c-0.5-0.4-1 0.3-0.7 0.6q0.9 0.7 1.5 1.6 0.7 0.9 1 1.9 0.4 1 0.4 2.1 0 1.1-0.2 2.2c-0.9 2.8-2.5 4.3-5 5.8q-0.2 0.1-0.2 0.3-0.1 0.1 0 0.3 0.1 0.1 0.3 0.2 0.2 0 0.3-0.1z" />
			<path
				d="m233.8 58.5q-0.7 0.6-1.6 1.1-0.8 0.4-1.7 0.7-0.9 0.3-1.8 0.5-0.9 0.2-1.9 0.1-0.9 0-1.8-0.1-1-0.2-1.8-0.5-0.9-0.3-1.7-0.8-0.9-0.5-1.6-1.1c-0.4-0.3-1 0.3-0.6 0.6q0.8 0.7 1.7 1.2 0.9 0.5 1.8 0.9 1 0.3 2 0.5 1 0.2 2 0.2 1.1 0 2.1-0.2 1-0.1 2-0.5 0.9-0.3 1.8-0.8 0.9-0.5 1.7-1.2c0.4-0.3-0.2-1-0.6-0.6z" />
			<path
				d="m255.9 55.3q-0.4-0.2-0.9-0.2-0.5-0.1-1 0-0.5 0.2-0.8 0.5-0.4 0.3-0.7 0.7c-0.3 0.4 0.4 0.9 0.7 0.4q0.4-0.6 1-0.7 0.7-0.2 1.3 0.1c0.5 0.2 0.9-0.5 0.4-0.8z" />
			<path
				d="m237.1 71.6q-0.4 0-0.5 0.3-0.1 0.4 0.3 0.6c2.7 0.8 5.2-0.7 7.3-2.3q3.5-2.8 5.4-6.9c0.2-0.5-0.5-1-0.8-0.4q-1.5 3.3-4.2 5.8c-1.9 1.8-4.7 3.8-7.5 2.9z" />
			<path
				d="m282.3 36.8q-2.7-0.1-5.4 0.9-2.6 1-4.6 2.9c-0.4 0.4 0.2 1 0.6 0.6q1.9-1.8 4.4-2.7 2.4-0.9 5-0.8c0.5 0 0.5-0.8 0-0.9z" />
			<path
				d="m165.8 70.7q-1 1-2.2 1.8-1.2 0.9-2.6 1.4-1.3 0.6-2.7 0.9-1.4 0.3-2.9 0.2-1.4 0-2.9-0.3-1.4-0.2-2.7-0.8-1.3-0.6-2.5-1.4-1.2-0.8-2.2-1.9c-0.4-0.4-1 0.2-0.6 0.6q1 1.1 2.3 2 1.2 0.9 2.7 1.5 1.4 0.6 2.9 0.9 1.5 0.3 3 0.3 1.5 0 3-0.3 1.5-0.3 3-0.9 1.4-0.6 2.6-1.4 1.3-0.9 2.4-2c0.4-0.4-0.3-1-0.6-0.6z" />
			<path d="m182.9 70.3q-2.8 2.4-6.5 2.7c-0.6 0-0.6 0.9 0 0.8q4-0.3 7.1-3c0.4-0.3-0.2-0.9-0.6-0.5z" />
		</g>
		<g id="text">
			<path
				d="m11.2 120.7q-1.3 0-2.7-0.7-1.6-0.9-1.6-2.6 0-2.1 1.3-3.4 1.3-1.3 3.4-2 2.1-0.7 4.3-0.7v0.4l-0.4-0.2q0.2-0.7 0.2-1.8 0-1.2-0.4-2.8-0.5-1.7-1.2-3.4-0.7-1.6-1.5-2.7-0.7-1-1.1-1 0.1 0 0.2 0-0.1 0-0.1 0-0.2 0.2-0.4 0.5-0.5 0.7-1.1 1.7-0.7 1-1.3 1.9-0.6 1-1 1.5l-1.6 2.6-1.8 2.6q-0.9 1.3-1.2 1.7-0.4 0.4-1 0.4-0.9 0-1.2-0.6-0.2-0.5-0.2-0.8 0-0.6 0.3-0.9l0.2 0.3-0.3-0.2q0.8-1.1 1.9-2.6 1-1.5 2-3.1 1-1.5 1.7-2.7 0.8-1.1 1.5-2.2 0.8-1.2 1.6-2 0.9-0.8 1.6-0.8 1.4 0 2.7 1.3 1.3 1.2 2.3 3.1 1.1 2 1.7 4.1 0.6 2.2 0.6 4.1 0 0.4 0 1-0.1 0.6-0.1 1h-0.4v-0.4h0.6 0.1q0.1 0 0.1 0h0.3q0.9 0 1.8-0.2 0.8-0.2 1.4-0.8l0.3 0.3-0.3-0.3q0.4-0.4 0.9-0.4 0.8 0 1.2 0.5 0.3 0.4 0.3 1 0 1.1-1.2 1.8-1 0.5-2.3 0.7-1.2 0.2-2.1 0.2h-1.4v-0.4l0.4 0.1q-0.5 1.7-1.4 3.2-0.8 1.6-2.2 2.7-1.4 1-3.4 1zm0-0.8q1.7 0 2.9-0.9 1.3-0.9 2-2.4 0.8-1.5 1.3-3l0.1-0.3h1.7q0.8 0 2-0.2 1.1-0.1 2-0.6 0.8-0.4 0.8-1.1 0-0.3-0.2-0.5-0.1-0.2-0.5-0.2-0.1 0-0.3 0.2-0.8 0.7-1.8 1-1 0.2-2 0.2h-0.3q-0.2 0-0.4-0.1l0.2-0.3v0.4h-1.1l0.1-0.5q0-0.4 0.1-0.9 0-0.6 0-1 0-1.8-0.6-3.9-0.6-2-1.6-3.9-1-1.8-2.1-2.9-1.1-1.1-2.2-1.1-0.4 0-1 0.6-0.8 0.7-1.5 1.8-0.8 1.1-1.5 2.2l-0.3-0.2 0.3 0.2q-0.7 1.2-1.7 2.8-1 1.5-2.1 3.1-1 1.5-1.8 2.6h-0.1q0 0.1 0 0.3 0 0.1 0.1 0.4 0.1 0.2 0.5 0.2 0.3 0 0.5-0.2l0.2 0.3-0.3-0.2q0.3-0.4 1.1-1.6l1.8-2.7 1.7-2.5q0.3-0.5 0.9-1.5 0.7-1 1.3-2 0.7-0.9 1.2-1.6 0.2-0.4 0.4-0.6 0.3-0.3 0.5-0.3 0.9 0 1.8 1.3 0.8 1.2 1.5 2.9 0.8 1.7 1.3 3.5 0.4 1.7 0.4 3 0 1.3-0.2 2.1l-0.1 0.3h-0.3q-2.1 0-4 0.6-1.9 0.7-3.1 1.8-1.1 1.1-1.1 2.9 0 1.2 1.1 1.9 1.3 0.6 2.4 0.6zm0-1q-2.3 0-2.3-1.5 0-1.8 1.1-2.7 1.1-0.8 2.7-1.1 1.5-0.2 3-0.3h0.5l-0.1 0.5q-0.5 2-1.6 3.5-1.2 1.6-3.3 1.6zm0-0.8q1.7 0 2.6-1.3 1.1-1.4 1.5-3.2l0.4 0.1v0.4q-1.4 0.1-2.9 0.3-1.4 0.3-2.3 1-0.8 0.6-0.8 2 0 0.7 1.5 0.7z" />
			<path
				d="m39.2 120.3q-2 0-3.2-1.4-1.2-1.2-1.7-3.1-0.6-1.9-0.9-3.6l0.4-0.1 0.4 0.1q-0.4 1.7-1.4 3.2-0.9 1.5-2.2 2.5-1.4 1-3.3 1-3.1 0-4.4-3.4-1.2-3.2-0.5-8.1 0.2-1 0.4-1.2 0.2-0.2 1.1-0.2 0.7 0 1 0.3 0.4 0.3 0.4 1 0 1.1-0.1 2-0.2 0.9-0.2 2.1 0 1.9 0.6 3.4 0.5 1.3 1.7 1.3 1.3 0 2.3-1.3 1.1-1.3 1.9-3.4l0.4 0.1-0.4-0.1q0.2-0.7 0.4-1.2 0.2-0.6 0.3-0.9 0.4-0.8 1.3-0.8 0.7 0 1.4 0.3 0.8 0.3 1 1.3v0.1q0.3 1.4 0.7 3.2 0.3 1.8 1 3 0.6 1.1 1.6 1.1 1.9 0 3.3-1.1 1.4-1.1 2.5-2.7l2.3-3.2 0.3 0.3-0.3-0.2q0.2-0.4 0.6-0.6 0.3-0.1 0.6-0.1 0.6 0 1 0.4 0.4 0.4 0.4 0.9 0 0.5-0.2 0.9v0.1q-1.2 1.7-2.7 3.6-1.5 1.8-3.4 3.1-1.9 1.4-4.4 1.4zm0-0.8q2.3 0 4-1.2 1.7-1.2 3.2-3.1 1.4-1.8 2.6-3.5l0.3 0.3-0.3-0.2q0.1-0.3 0.1-0.6 0-0.1-0.2-0.3-0.1-0.2-0.4-0.2-0.1 0-0.3 0.1-0.1 0-0.2 0.2l-2.3 3.2q-1.2 1.7-2.7 2.8-1.6 1.3-3.8 1.3-1.5 0-2.3-1.5-0.8-1.4-1.1-3.2-0.4-1.8-0.6-3.3h0.3l-0.3 0.1q-0.2-0.7-0.6-0.9-0.5-0.2-1.1-0.2-0.4 0-0.5 0.3-0.1 0.3-0.3 0.9-0.2 0.5-0.5 1.2-0.8 2.2-2 3.6-1.3 1.6-2.9 1.6-1.8 0-2.5-1.8-0.6-1.6-0.6-3.7 0-1.2 0.2-2.2 0.1-0.9 0.1-1.9 0-0.3-0.1-0.4-0.1-0.1-0.5-0.1-0.3 0-0.5 0-0.1 0-0.1 0 0 0 0 0 0.1 0 0.1-0.1 0 0 0 0 0 0.1-0.1 0.2 0 0.2-0.1 0.6-0.7 4.8 0.5 7.7 1.1 2.9 3.6 2.9 1.6 0 2.8-0.9 1.2-0.9 2.1-2.3 0.8-1.3 1.2-2.9l0.8 0.1q0.3 1.6 0.8 3.4 0.6 1.8 1.6 2.9 0.9 1.1 2.6 1.1z" />
			<path
				d="m56.8 118q-3.6 0-5.9-2-2.3-2-3.7-5.2-0.8-2-1.4-4.4-0.6-2.4-0.9-4.8-0.3-2.4-0.4-4.6l0.4-0.1-0.1 0.4q-1 0-1.9-0.1-0.9 0-1.8-0.4l0.2-0.4-0.1 0.4q-0.3 0-0.5-0.3-0.2-0.3-0.2-0.6 0.1-0.8 0.8-0.9 0.8-0.1 1.7-0.2 0.8 0 1.8 0v0.4h-0.4q-0.1-0.5-0.1-1.5-0.1-1.1-0.1-2.4-0.1-1.3-0.1-2.5 0-1.2 0-1.9 0-0.8 0.7-1.2 0.7-0.5 1.5 0.1l0.1 0.1v0.2q0.8 3.6 0.9 9h-0.4v-0.4q1.4 0.1 2.8 0.1h7.8q0.8 0.1 0.9 0.9 0.2 0.7-0.4 1.1-1.2 0.6-3.5 0.6h-7.5v-0.4h0.4q0.2 3.2 0.8 6.5 0.6 3.2 1.7 6 1 2.6 2.6 4.2 1.6 1.6 3.8 1.6 1.5 0 2.5-0.7 1.1-0.7 1.9-1.8 0.9-1.1 1.6-2.2 0.6-0.7 1.2-0.7 0.6 0 0.9 0.3h0.1q0.9 0.9 0.2 1.9l-0.3-0.2 0.4 0.2q-0.6 1.2-1.8 2.6-1.2 1.4-2.8 2.3-1.5 1-3.4 1zm0-0.8q1.6 0 3-0.8 1.5-0.9 2.6-2.2 1.1-1.4 1.6-2.5h0.1q0.3-0.5-0.2-0.9l0.3-0.3-0.3 0.3q-0.1-0.1-0.4-0.1-0.2 0-0.6 0.4l-0.3-0.3 0.4 0.3q-0.7 1-1.6 2.2-0.9 1.2-2.1 2-1.3 0.8-3 0.8-2.6 0-4.4-1.8-1.7-1.7-2.8-4.5-1.1-2.8-1.7-6.2-0.6-3.3-0.8-6.6v-0.4h7.9q2.1 0 3.2-0.6l0.1 0.4-0.2-0.3q0.1-0.1 0-0.3 0-0.2-0.2-0.2l0.1-0.4v0.4h-7.8q-1.4 0-2.8-0.1h-0.4v-0.4q-0.2-5.3-0.8-8.9l0.3-0.1-0.2 0.4q-0.3-0.3-0.6-0.1-0.3 0.2-0.3 0.5 0 0.7 0 1.9 0 1.1 0.1 2.5 0 1.3 0.1 2.3 0 1.1 0.1 1.5v0.5h-0.4q-1 0-1.8 0-0.8 0.1-1.6 0.2v-0.4 0.4q0 0-0.1 0.2 0 0 0 0 0 0 0 0 0 0 0 0 0 0 0.1 0h0.1q0.7 0.4 1.5 0.4 0.8 0.1 1.9 0.1h0.3l0.1 0.4q0.1 2.2 0.4 4.6 0.3 2.4 0.9 4.7l-0.4 0.1 0.4-0.1q0.6 2.3 1.3 4.3l-0.3 0.1 0.3-0.2q1.4 3.1 3.5 5 2.1 1.8 5.4 1.8z" />
			<path
				d="m72.3 116.4q-3.5 0-6.3-1.5-2.9-1.6-4.6-4.2-1.7-2.6-1.7-5.7 0-3.8 1.7-6.1 1.8-2.3 4.7-2.3 2.1 0 3.4 1.5 1.4 1.4 1.4 3.4 0 1.6-0.8 3.5-0.7 1.9-1.8 3.6-1.2 1.8-2.5 3.2l-0.3-0.3 0.3-0.3q1.1 1.1 2.7 1.7 1.6 0.7 3.8 0.7 1.5 0 3-0.9 1.5-0.9 2.6-2.2 0.6-0.6 1.2-0.6 0.6 0 1 0.5 0.4 0.4 0.4 0.9 0 0.6-0.3 1-2 1.9-3.7 3-1.8 1.1-4.2 1.1zm0-0.8q2.2 0 3.8-1 1.6-1 3.5-2.9l0.3 0.3-0.3-0.2q0.1-0.2 0.1-0.5 0-0.2-0.2-0.4-0.1-0.2-0.4-0.2-0.3 0-0.6 0.4l-0.3-0.3 0.3 0.2q-1.2 1.4-2.8 2.4-1.7 1-3.4 1-2.4 0-4.1-0.7-1.7-0.8-2.9-1.9l-0.4-0.2 0.3-0.3q1.3-1.4 2.4-3.1 1.1-1.7 1.8-3.5 0.7-1.7 0.7-3.2 0-1.7-1.1-2.9-1.2-1.1-2.9-1.1-2.5 0-4 1.9-1.6 2.1-1.6 5.6 0 2.9 1.6 5.3 1.6 2.4 4.3 3.8 2.6 1.5 5.9 1.5zm-7.9-5.1l-0.3 0.4-0.3-0.4q-0.9-1-1.4-2.4-0.6-1.4-0.6-3.1 0-1.4 0.3-2.8 0.4-1.5 1.3-2.5 1-1.1 2.7-1.1 1.3 0 2.1 0.8 0.7 0.7 0.7 2.1 0 1.5-0.8 3.2-0.8 1.7-1.8 3.2-1 1.5-1.9 2.6zm-0.6-0.5q0.8-1 1.8-2.5 1-1.5 1.7-3.1 0.7-1.6 0.7-2.9 0-1.1-0.4-1.6-0.5-0.4-1.5-0.4-1.3 0-2.1 0.8-0.8 0.8-1.1 2.1-0.3 1.3-0.3 2.6 0 1.5 0.5 2.8 0.5 1.2 1.3 2.2l-0.3 0.3z" />
			<path
				d="m88.6 123.9q-2.5 0-4.3-1.4-1.9-1.5-3.4-3.9-1.4-2.4-2.5-5.4-1.1-3-1.8-6.2l0.4-0.1-0.4 0.1q-0.7-2.5-1-4.7-0.3-2.2-0.5-4.3-0.1-1.2-0.1-2.8-0.1-1.7-0.1-3.5v-3.2q0-2 0.1-4.6 0.1-2.6 0.6-5.3 0.4-1.9 1-3.7 0.7-1.8 1.7-3 1.2-1.2 2.9-1.2 1.7 0 2.8 1.5 1 1.5 1.5 3.9 0.5 2.2 0.7 4.9 0.1 2.5 0.1 4.9 0 4.9-0.3 9.2-0.3 4.4-1.4 8.5-1.2 4-3.7 8l-0.4-0.2 0.4-0.1q0.4 1.5 1.2 3.2 0.7 1.7 1.7 3.2 1 1.5 2.3 2.5 1.1 0.9 2.5 0.9 1.5 0 3.1-1.1 1.6-1.1 3.1-2.8 1.6-1.7 2.8-3.5l2.2-3.2 0.3 0.3-0.3-0.2q0.4-0.7 1.2-0.7 0.6 0 1 0.4 0.4 0.4 0.4 1 0 0.4-0.2 0.7l-0.4-0.2 0.4 0.2-0.4 0.7q-1 1.6-2.3 3.5-1.3 1.9-2.9 3.6-1.7 1.8-3.6 2.9-2 1.2-4.4 1.2zm0-0.8q2.1 0 4-1.1 1.8-1 3.4-2.7 1.5-1.7 2.8-3.6 1.3-1.9 2.3-3.4l0.4 0.2-0.4-0.2 0.4-0.7q0.1-0.2 0.1-0.3 0-0.3-0.2-0.4-0.1-0.2-0.4-0.2-0.4 0-0.5 0.3l-2.2 3.2q-1.3 1.8-2.9 3.6-1.5 1.7-3.2 2.9-1.8 1.2-3.6 1.2-1.6 0-3-1.1-1.4-1-2.4-2.6-1.1-1.6-1.9-3.4-0.7-1.8-1.2-3.3v-0.2l0.1-0.2q2.5-3.8 3.6-7.8 1.1-3.9 1.4-8.2 0.3-4.3 0.3-9.2 0-2.3-0.1-4.9-0.2-2.5-0.7-4.8-0.5-2.2-1.4-3.5-0.8-1.2-2.1-1.2-1.4 0-2.3 1-0.9 1-1.5 2.7-0.6 1.7-1 3.5-0.4 2.7-0.6 5.2-0.1 2.6-0.1 4.6v3.2q0 1.8 0.1 3.4 0 1.7 0.1 2.8h-0.4 0.4q0.2 2.2 0.5 4.3 0.3 2.2 0.9 4.6h0.1q0.7 3.2 1.8 6.2 1 2.9 2.4 5.2 1.4 2.3 3.1 3.6 1.7 1.3 3.9 1.3zm-8.7-13.9l-0.5 0.8-0.2-0.9q-1.5-4.9-1.9-10.3-0.4-5.3-0.4-10.3 0-1.8 0.2-4.4 0.2-2.5 0.6-4.9 0.2-1.5 0.6-3 0.5-1.4 1.1-2.4 0.7-1.1 1.8-1.1 1.1 0 1.7 1.7 0.6 1.4 0.9 3.6 0.2 2.1 0.4 4.3 0.1 2.1 0.1 3.6 0 4.6-0.2 8.4-0.2 3.9-1.1 7.4-0.9 3.6-3.1 7.5zm-0.7-0.4q2.1-3.8 3-7.3 0.9-3.5 1.1-7.2 0.2-3.8 0.2-8.4 0-1.4-0.1-3.6-0.2-2.1-0.4-4.2-0.3-2.1-0.8-3.4-0.5-1.2-1-1.2-0.6 0-1.1 0.8-0.6 0.8-1 2.2-0.4 1.3-0.6 2.8-0.4 2.4-0.6 4.9-0.2 2.5-0.2 4.3 0 5 0.4 10.3 0.4 5.2 1.8 10.1l-0.4 0.1z" />
			<path
				d="m115.4 121.4q-2 0-4.2-1.2-2.2-1.1-3.9-2.6-1.5-1.3-2.8-3-1.4-1.7-1.4-3 0-1.4 2.1-2 1.4-0.5 2.9-1.5 1.4-1 2.5-2.2 1-1.2 1-2.5 0-0.3-0.1-0.5-0.1 0-0.1 0-0.5 0-1.3 0.5-0.9 0.5-1.8 1.3-1 0.9-1.6 1.6l-0.1 0.1q-0.7 0.7-1.5 1.7-0.8 1-1.5 1.9-0.7 0.8-1 1.3l-0.4-0.2 0.4-0.1q0.2 1.4 0.5 3.2 0.3 1.9 0.6 3.4l0.1 0.1v0.3q0 0.6-0.5 1-0.3 0.3-1 0.3-1.2 0-1.5-1.4-0.9-4.9-1.6-10.2-0.6-5.3-0.6-11.2 0-2.4 0.1-5.5 0.2-3.1 0.8-6.2 0.7-3.1 2.2-5.4 1.7-2.5 4.6-2.5 4 0 5.6 2.8 1.6 2.6 1.6 6.3 0 3.7-0.9 6.7-0.9 2.9-2.4 5.6-1.6 2.7-3.5 5.7l-0.3-0.3-0.3-0.2q0.7-0.7 1.8-1.5 1-0.8 2.3-1.4 1.2-0.6 2.2-0.6 0.9 0 1.6 0.8 0.6 0.7 0.6 1.9 0 2.2-1.4 4.1-1.4 1.9-3.5 3.3-2 1.4-4.1 1.9l-0.1-0.4 0.4-0.1q0.3 0.9 1.3 2.1 1 1.2 2.4 2.3 1.5 1.2 3 1.9 1.5 0.7 2.8 0.7 1.7 0 3.1-1.1 1.5-1.1 2.7-2.8 1.2-1.7 2.2-3.3 0.3-0.4 0.5-0.8 0.4-0.6 1.1-0.6 0.7 0 1.1 0.5 0.4 0.4 0.4 0.9 0 0.3-0.1 0.5-0.1 0.1-0.2 0.3l-2.8 4.2q-1.5 2.1-3.4 3.6-1.9 1.5-4.6 1.5zm0-0.8q2.4 0 4.1-1.3 1.8-1.4 3.2-3.5l2.8-4.1 0.4 0.2-0.4-0.2q0.1-0.1 0.1-0.2 0.1-0.1 0.1-0.2 0-0.2-0.2-0.4-0.2-0.2-0.5-0.2-0.3 0-0.4 0.2-0.3 0.4-0.5 0.9l-0.4-0.3 0.4 0.2q-1 1.6-2.3 3.4-1.3 1.8-2.8 3-1.7 1.2-3.6 1.2-1.5 0-3.1-0.8-1.7-0.7-3.2-1.9-1.5-1.2-2.5-2.5-1.1-1.3-1.5-2.4l-0.1-0.4 0.4-0.1q2-0.4 3.9-1.8 1.9-1.3 3.2-3 1.2-1.8 1.2-3.7 0-0.9-0.4-1.4-0.3-0.5-0.9-0.5-0.8 0-1.9 0.5-1.1 0.6-2.2 1.4-1 0.7-1.6 1.3l-0.6-0.5q1.8-3 3.4-5.6 1.5-2.6 2.3-5.5 0.9-2.8 0.9-6.4 0-3.5-1.4-5.9-1.4-2.4-5-2.4-2.5 0-3.9 2.1-1.5 2.2-2.1 5.2-0.6 3-0.8 6.1-0.1 3-0.1 5.4 0 5.9 0.6 11.1 0.7 5.2 1.6 10.2 0.2 0.7 0.7 0.7 0.4 0 0.5-0.2 0.2-0.1 0.1-0.3v-0.3h0.5l-0.4 0.1q-0.4-1.5-0.7-3.4-0.3-1.9-0.5-3.3v-0.1l0.1-0.2q0.4-0.4 1.1-1.3 0.7-0.9 1.5-1.9 0.8-1 1.5-1.8l0.3 0.3-0.3-0.3q0.8-0.8 1.7-1.7 1-0.8 1.9-1.4 1-0.7 1.8-0.7 0.5 0 0.8 0.6 0.2 0.3 0.2 0.8 0 1.5-1.2 3-1.1 1.3-2.7 2.4-1.6 1.1-3 1.5-1.6 0.5-1.6 1.3 0 1 1.2 2.5 1.3 1.6 2.7 2.9 1.7 1.4 3.7 2.5 2.1 1.1 3.9 1.1zm-13.2-12l-0.6 1.1-0.1-1.2q-0.4-2.7-0.5-6.4-0.2-3.6-0.2-7.6 0-1.3 0.1-3.1 0.1-1.7 0.2-3.5 0.2-1.8 0.5-3.1 0.5-2.3 1.6-4 1.2-1.8 3.2-1.8 2.6 0 3.8 2.1 1.2 2.1 1.2 4.7 0 2.1-0.4 4.1-0.4 2-0.7 3.2-0.8 2.2-1.7 4.2-1 2-2 3.9l-0.4-0.2 0.4 0.2q-0.5 1-1.4 2.3-0.8 1.4-1.6 2.7-0.8 1.4-1.4 2.4zm-0.7-0.4q0.6-1 1.4-2.4 0.8-1.3 1.6-2.7 0.8-1.3 1.4-2.3 1-1.9 2-3.8 0.9-2 1.6-4.2 0.3-1.1 0.7-3 0.4-1.9 0.4-4 0-2.4-1.1-4.3-0.9-1.7-3.1-1.7-1.6 0-2.5 1.5-1 1.5-1.5 3.6-0.3 1.4-0.5 3.1-0.1 1.8-0.2 3.5-0.1 1.7-0.1 3 0 4 0.2 7.6 0.1 3.6 0.5 6.3h-0.4z" />
			<path
				d="m133.3 118q-3.5 0-5.9-2-2.3-2-3.7-5.2-0.7-2-1.4-4.4-0.5-2.4-0.8-4.8-0.3-2.4-0.5-4.6l0.4-0.1v0.4q-1.1 0-1.9-0.1-0.9 0-1.8-0.4l0.1-0.4v0.4q-0.4 0-0.6-0.3-0.2-0.3-0.1-0.6 0.1-0.8 0.7-0.9 0.9-0.1 1.7-0.2 0.8 0 1.8 0v0.4h-0.4q-0.1-0.5-0.1-1.5 0-1.1-0.1-2.4 0-1.3-0.1-2.5 0-1.2 0-1.9 0-0.8 0.7-1.2 0.8-0.5 1.5 0.1l0.2 0.1v0.2q0.7 3.6 0.8 9h-0.4v-0.4q1.5 0.1 2.8 0.1h7.9q0.7 0.1 0.9 0.9 0.1 0.7-0.4 1.1-1.2 0.6-3.6 0.6h-7.4v-0.4h0.4q0.2 3.2 0.7 6.5 0.6 3.2 1.7 6 1.1 2.6 2.7 4.2 1.5 1.6 3.8 1.6 1.4 0 2.5-0.7 1-0.7 1.9-1.8 0.9-1.1 1.6-2.2 0.6-0.7 1.1-0.7 0.6 0 1 0.3 0.9 0.9 0.3 1.9l-0.3-0.2 0.3 0.2q-0.6 1.2-1.8 2.6-1.2 1.4-2.7 2.3-1.6 1-3.5 1zm0-0.8q1.7 0 3.1-0.8 1.4-0.9 2.5-2.2 1.1-1.4 1.7-2.5 0.3-0.5-0.2-0.9l0.3-0.3-0.2 0.3q-0.2-0.1-0.5-0.1-0.2 0-0.5 0.4l-0.3-0.3 0.3 0.3q-0.7 1-1.6 2.2-0.9 1.2-2.1 2-1.2 0.8-2.9 0.8-2.6 0-4.4-1.8-1.7-1.7-2.8-4.5-1.1-2.8-1.7-6.2-0.6-3.3-0.8-6.6v-0.4h7.8q2.2 0 3.2-0.6l0.2 0.4-0.2-0.3q0-0.1 0-0.3 0-0.2-0.2-0.2v-0.4 0.4h-7.8q-1.3 0-2.8-0.1h-0.4v-0.4q-0.1-5.3-0.8-8.9l0.4-0.1-0.3 0.4q-0.3-0.3-0.6-0.1-0.3 0.2-0.3 0.5 0 0.7 0 1.9 0.1 1.1 0.1 2.5 0.1 1.3 0.1 2.3 0 1.1 0.1 1.5l0.1 0.5h-0.5q-0.9 0-1.7 0-0.8 0.1-1.6 0.2l-0.1-0.4 0.1 0.4q-0.1 0-0.1 0.2 0 0 0 0 0 0 0 0 0 0 0 0 0 0 0 0h0.1q0.8 0.4 1.5 0.4 0.9 0.1 1.9 0.1h0.4v0.4q0.2 2.2 0.5 4.6 0.3 2.4 0.8 4.7l-0.4 0.1 0.4-0.1q0.6 2.3 1.4 4.3l-0.4 0.1 0.4-0.2q1.3 3.1 3.5 5 2.1 1.8 5.3 1.8z" />
			<path
				d="m147.3 119.8q-4.1 0-6.3-2.4-2.3-2.5-2.3-5.9 0-2.2 1.1-4.2 1-2.1 2.8-3.4 1.9-1.3 4.2-1.3 0.5 0 1.5 0.2 1.1 0.3 2 0.7 1.1 0.5 1.1 1.4h-0.4l0.3-0.3q3.5 2.1 3.7 7.3h-0.4l0.1-0.4q0.7 0.2 1.6 0.2 0.9 0.1 1.5 0.1 1.2 0 1.6-0.4 0.5-0.4 1.5-1.1l0.2 0.3-0.3-0.3q0.5-0.4 1-0.4 0.7 0 1.1 0.5 0.3 0.4 0.3 0.9 0 0.5-0.3 0.9l-0.3-0.2 0.3 0.2q-0.9 1.3-2.3 1.9-1.4 0.5-2.8 0.5-2.3 0-3.5-0.3l0.1-0.4 0.4 0.1q-0.5 2.8-2.4 4.3-1.8 1.5-5.1 1.5zm0-0.8q3 0 4.6-1.3 1.6-1.3 2.1-3.8l0.1-0.4 0.4 0.1q1.1 0.2 3.3 0.2 1.2 0 2.5-0.5 1.2-0.4 2-1.6 0.1-0.2 0.1-0.4 0-0.2-0.1-0.4-0.2-0.2-0.5-0.2-0.2 0-0.4 0.2-1 0.7-1.5 1.1-0.6 0.6-2.1 0.6-0.6 0-1.6-0.1-0.9 0-1.7-0.2l-0.3-0.1v-0.3q-0.2-4.8-3.4-6.6l-0.1-0.1-0.1-0.2q0-0.5-0.7-0.8-0.8-0.4-1.7-0.6-1-0.2-1.4-0.2-2.1 0-3.7 1.2-1.7 1.2-2.6 3-1 1.9-1 3.9 0 3.1 2.1 5.3 2 2.2 5.7 2.2zm0-1.2q-2.4 0-4.5-1.6-2-1.6-2-4.7 0-1.8 0.8-3.3 0.9-1.6 2.2-2.6 1.4-1 3-1l0.2 0.8q-0.4 0.2-1.3 0.8-0.7 0.6-0.7 1.8 0 1.1 1.1 2.2 1.2 1.1 3 1.9 1.8 0.8 3.4 1.1l0.4 0.1-0.1 0.4q-0.7 4.1-5.5 4.1zm0-0.8q4.1 0 4.7-3.5l0.4 0.1-0.1 0.4q-1.7-0.3-3.5-1.2-1.9-0.8-3.2-2-1.4-1.3-1.4-2.8 0-1.6 1-2.4 0.9-0.8 1.5-0.9l0.1 0.3v0.4q-1.3 0-2.5 0.9-1.2 0.9-2 2.3-0.7 1.3-0.7 2.9 0 2.7 1.7 4.1 1.8 1.4 4 1.4zm5.7-5.4v0.5l-0.5-0.1q-1-0.2-2.4-0.7-1.4-0.6-2.5-1.4-1.2-0.9-1.2-1.9 0-1.1 1.2-1.7 1.1-0.5 2.1-0.5h0.1l0.1 0.1q1.1 0.6 2 2.2 1 1.6 1.1 3.5zm-0.8 0q-0.1-1.7-0.9-3.1-0.9-1.4-1.8-2l0.2-0.3v0.4q-0.8 0-1.7 0.4-0.8 0.4-0.8 1 0 0.6 0.9 1.3 1 0.7 2.3 1.2 1.3 0.5 2.2 0.7v0.4z" />
			<path
				d="m170.9 120.7q-1.3 0-2.8-0.7-1.6-0.9-1.6-2.6 0-2.1 1.4-3.4 1.3-1.3 3.4-2 2-0.7 4.2-0.7l0.1 0.4-0.4-0.2q0.2-0.7 0.2-1.8 0-1.2-0.5-2.8-0.4-1.7-1.1-3.4-0.8-1.6-1.5-2.7-0.7-1-1.1-1 0.1 0 0.1 0 0 0 0 0-0.2 0.2-0.4 0.5-0.5 0.7-1.2 1.7-0.6 1-1.2 1.9-0.6 1-1 1.5l-1.7 2.6-1.8 2.6q-0.8 1.3-1.1 1.7-0.4 0.4-1.1 0.4-0.8 0-1.1-0.6-0.3-0.5-0.3-0.8 0-0.6 0.3-0.9l0.3 0.3-0.3-0.2q0.8-1.1 1.8-2.6 1-1.5 2.1-3.1 1-1.5 1.7-2.7 0.7-1.1 1.5-2.2 0.8-1.2 1.5-2 0.9-0.8 1.7-0.8 1.4 0 2.7 1.3 1.2 1.2 2.3 3.1 1.1 2 1.7 4.1 0.6 2.2 0.6 4.1 0 0.4-0.1 1 0 0.6-0.1 1h-0.4v-0.4h0.7 0.1q0 0 0.1 0h0.3q0.9 0 1.8-0.2 0.8-0.2 1.4-0.8l0.3 0.3-0.3-0.3q0.4-0.4 0.9-0.4 0.8 0 1.2 0.5 0.3 0.4 0.3 1 0 1.1-1.2 1.8-1 0.5-2.3 0.7-1.2 0.2-2.1 0.2h-1.5v-0.4l0.4 0.1q-0.5 1.7-1.3 3.2-0.9 1.6-2.2 2.7-1.4 1-3.4 1zm0-0.8q1.7 0 2.9-0.9 1.2-0.9 2-2.4 0.8-1.5 1.3-3v-0.3h1.8q0.8 0 2-0.2 1.1-0.1 2-0.6 0.8-0.4 0.8-1.1 0-0.3-0.2-0.5-0.1-0.2-0.5-0.2-0.2 0-0.3 0.2h-0.1q-0.7 0.7-1.7 1-1 0.2-2 0.2h-0.3q-0.3 0-0.5-0.1l0.2-0.3v0.4h-1v-0.5q0.1-0.4 0.1-0.9 0-0.6 0-1 0-1.8-0.5-3.9-0.6-2-1.6-3.9-1-1.8-2.2-2.9-1.1-1.1-2.1-1.1-0.4 0-1.1 0.6-0.7 0.7-1.5 1.8-0.7 1.1-1.4 2.2l-0.4-0.2 0.4 0.2q-0.7 1.2-1.7 2.8-1.1 1.5-2.1 3.1-1 1.5-1.9 2.6-0.1 0.1-0.1 0.3 0 0.1 0.2 0.4 0.1 0.2 0.4 0.2 0.3 0 0.5-0.2l0.3 0.3-0.3-0.2q0.3-0.4 1.1-1.6l1.8-2.7 1.6-2.5q0.4-0.5 1-1.5 0.6-1 1.3-2 0.6-0.9 1.1-1.6 0.3-0.4 0.4-0.6 0.3-0.3 0.6-0.3 0.8 0 1.7 1.3 0.8 1.2 1.6 2.9 0.7 1.7 1.2 3.5 0.5 1.7 0.5 3 0 1.3-0.3 2.1v0.3h-0.3q-2.1 0-4.1 0.6-1.9 0.7-3 1.8-1.2 1.1-1.2 2.9 0 1.2 1.2 1.9 1.3 0.6 2.4 0.6zm0-1q-2.3 0-2.3-1.5 0-1.8 1.1-2.7 1.1-0.8 2.6-1.1 1.6-0.2 3.1-0.3h0.5l-0.1 0.5q-0.5 2-1.6 3.5-1.3 1.6-3.3 1.6zm0-0.8q1.6 0 2.6-1.3 1-1.4 1.5-3.2l0.4 0.1v0.4q-1.4 0.1-2.9 0.3-1.4 0.3-2.3 1-0.8 0.6-0.8 2 0 0.7 1.5 0.7z" />
			<path
				d="m235.6 118.6q-0.7 0-1.1-0.5-0.3-0.4-0.7-1.6-0.4-1.1-0.8-2.6l-1-3-0.8-2.6q-0.5-1.8-1.3-3.6-0.8-1.9-1.6-3.2-0.8-1.1-1.4-1.1-0.3 0-0.9 0.7-0.7 0.9-1.5 2.2-0.8 1.3-1.4 2.6-0.7 1.4-1.2 2.4-0.5 0.9-1.2 2.3-0.7 1.4-1.5 2.7-0.8 1.4-1.5 2.3-0.9 1-1.6 1-0.7 0-1.1-0.3-0.4-0.4-0.4-1.1v-0.2q0-0.3 0.2-0.5l0.3 0.3-0.4-0.2q0.2-0.4 0.5-1.7 0.3-1.3 0.5-3 0.3-1.7 0.4-3.4 0.2-1.7 0.2-2.9 0-1.4-0.2-2.3l0.4-0.1-0.4 0.1q-0.1-0.4-0.3-0.6 0-0.1-0.1-0.1-0.3 0-0.9 0.6-0.7 0.8-1.4 1.7-0.8 1-1.4 1.9-0.6 0.9-1.5 2.3l-1.6 2.7q-0.9 1.4-1.4 2.3l-0.4-0.3 0.4 0.2q-0.3 0.5-0.7 0.6-0.3 0.1-0.6 0.1-0.5 0-1-0.4-0.4-0.4-0.4-1 0-0.4 0.3-0.8l0.3 0.3-0.3-0.2q0.4-0.8 1.2-2.2 0.8-1.4 1.8-2.9 1-1.5 1.8-2.6 0.9-1.2 2-2.4 1.1-1.2 2.2-2 1.2-0.9 2.2-0.9 1.2 0 1.9 1 0.6 0.9 0.8 2.4 0.2 1.4 0.2 2.8 0 1.9-0.2 3.7-0.2 1.8-0.6 2.9l-0.4-0.1-0.3-0.2q0.4-0.6 1-1.9 0.7-1.3 1.4-2.9 0.7-1.5 1.2-2.5 1-1.9 2.3-3.5 1.5-1.7 3.3-1.7 1.3 0 2.4 1.1 1 1 1.8 2.5 0.9 1.5 1.6 3l-0.4 0.2 0.3-0.2q0.6 1.3 1.2 3l1.2 3.3q0.5 1.6 0.9 2.5l-0.4 0.1-0.4-0.1q0.3-0.8 0.7-2.2 0.3-1.4 0.8-2.9l0.8-2.9q0.4-1.3 0.6-2.1 0.7-2.3 2-4.2 1.4-1.9 3.4-1.9 2 0 3.7 1.2 1.5 1.1 2.8 2.9 1.3 1.7 2.3 3.6 1.1 1.9 2.2 3.6 1.2 1.8 2.6 2.9 1.5 1 3.2 1 0.6 0 1.2-0.3 0.6-0.3 1.1-1.1v-0.1q0.5-0.6 1.2-0.6 0.5 0 1 0.3 0.5 0.4 0.5 1.1 0 0.4-0.2 0.7-1 1.5-2.2 2.2-1.1 0.6-2.6 0.6-2.4 0-4.2-1.2-1.8-1.2-3.1-3-1.4-1.6-2.5-3.7-1.1-1.7-2.2-3.4-1.2-1.7-2.4-2.9-1.1-1-2.4-1-0.6 0-1.2 0.9-0.7 1-1.2 2.6-0.6 1.6-1.1 3.3l-0.9 3.7q-0.6 2.3-1.2 4.4-0.6 2.1-1 3.2l-0.4-0.2 0.4 0.2q-0.2 0.4-0.4 0.6-0.2 0.3-0.8 0.3zm0-0.8q0.2 0 0.2 0 0.1-0.1 0.2-0.4 0.4-1.1 1-3.1 0.6-2.1 1.2-4.4l1-3.8q0.4-1.6 1-3.3 0.6-1.6 1.3-2.8 0.8-1.2 1.9-1.2 1.7 0 3 1.2 1.3 1.3 2.4 3 1.2 1.8 2.2 3.5 1.2 2 2.5 3.6 1.3 1.7 3 2.8 1.6 1.1 3.7 1.1 1.3 0 2.2-0.5 1-0.6 1.9-1.9 0.1-0.2 0.1-0.3 0-0.3-0.2-0.4-0.2-0.2-0.5-0.2-0.3 0-0.5 0.3l-0.4-0.2 0.4 0.2q-0.7 1-1.4 1.4-0.8 0.4-1.6 0.4-2 0-3.6-1.2-1.6-1.2-2.8-3-1.2-1.8-2.3-3.7-1-1.8-2.2-3.5-1.2-1.7-2.7-2.8-1.4-1-3.2-1-1.6 0-2.7 1.6-1.2 1.7-1.9 4-0.3 0.7-0.6 2.1l-0.9 2.8q-0.4 1.6-0.8 2.9-0.3 1.4-0.6 2.3l-0.4 1-0.4-1q-0.3-1-0.9-2.6l-1.1-3.2q-0.6-1.7-1.2-2.9v-0.1q-0.6-1.4-1.5-2.8-0.8-1.5-1.7-2.4-0.9-0.9-1.8-0.9-1.5 0-2.7 1.4-1.3 1.6-2.2 3.4-0.5 1-1.2 2.5-0.7 1.5-1.4 2.8-0.6 1.4-1 2l-0.8-0.3q0.4-1.1 0.6-2.8 0.2-1.7 0.2-3.6 0-1.4-0.2-2.7-0.2-1.3-0.7-2-0.5-0.7-1.2-0.7-0.8 0-1.7 0.7-1.1 0.8-2.1 1.9-1.1 1.2-2 2.3-0.8 1.1-1.8 2.6-0.9 1.5-1.7 2.9-0.8 1.3-1.2 2.2h-0.1q-0.1 0.2-0.1 0.3 0 0.2 0.2 0.4 0.2 0.2 0.4 0.2 0.2 0 0.4-0.1 0.1 0 0.2-0.2 0.6-0.9 1.4-2.2l1.7-2.7q0.8-1.4 1.4-2.3 0.7-1 1.4-2 0.8-1 1.6-1.7 0.8-0.9 1.4-0.9 0.8 0 1.2 1.3 0.2 1 0.2 2.5 0 1.3-0.2 3-0.1 1.7-0.4 3.4-0.2 1.7-0.5 3.1-0.3 1.3-0.5 1.8l-0.1 0.1v0.1q0-0.1 0-0.1 0 0 0 0v0.2q0 0.4 0.2 0.5 0.1 0.1 0.5 0.1 0.3 0 0.9-0.7 0.8-0.9 1.5-2.2 0.8-1.3 1.5-2.7 0.7-1.4 1.2-2.3 0.5-0.9 1.1-2.3 0.7-1.4 1.5-2.7 0.8-1.4 1.5-2.3 0.9-1 1.6-1 1 0 2 1.5 0.9 1.3 1.7 3.2 0.8 1.9 1.4 3.7l0.8 2.7 0.9 3q0.5 1.5 0.9 2.6 0.3 1 0.5 1.4l-0.3 0.2 0.3-0.3q0.2 0.2 0.5 0.2z" />
			<path
				d="m262.9 94.3q-1.2 0-1.5-1-0.3-0.8-0.1-1.6v-0.1q0.5-1.4 2.4-1.4 0.8 0 1.3 0.7 0.4 0.6 0.4 1.2 0 1-0.7 1.7-0.7 0.5-1.8 0.5zm0-0.8q0.8 0 1.3-0.4 0.4-0.3 0.4-1 0-0.4-0.3-0.8-0.2-0.3-0.6-0.3-1.3 0-1.7 0.9l-0.3-0.1 0.4 0.1q-0.2 0.6 0 1.2 0.2 0.4 0.8 0.4zm6 24.7q-2 0-3.5-1.4-1.4-1.3-2.4-3.4-1-2.1-1.4-4.6-0.5-2.4-0.5-4.9 0-0.6 0.4-1 0.5-0.4 1.1-0.4 0.5 0 0.9 0.2 0.4 0.3 0.5 1.1l-0.4 0.1 0.4-0.1 0.3 2.2q0.2 1.3 0.4 2.6 0.3 1.3 0.5 2.2 0.5 1.7 1.4 3 0.9 1.3 2.3 1.3 1.1 0 2.1-0.7 1-0.7 1.9-1.8 1-1.1 1.7-2.1 0.5-0.6 1.2-0.6 0.7 0 1.1 0.5 0.3 0.4 0.3 1 0 0.4-0.2 0.8-0.9 1.3-2.1 2.7-1.2 1.3-2.6 2.3-1.5 1-3.4 1zm0-0.8q1.6 0 2.9-0.9 1.4-0.9 2.5-2.2 1.1-1.3 2-2.6l0.3 0.3-0.3-0.3q0.1-0.2 0.1-0.3 0-0.3-0.2-0.5-0.1-0.2-0.4-0.2-0.3 0-0.6 0.3l-0.3-0.2 0.4 0.2q-0.8 1-1.7 2.2-1 1.1-2.2 1.9-1.2 0.8-2.5 0.8-1.8 0-2.9-1.6-1.1-1.5-1.6-3.3-0.2-1-0.5-2.3-0.2-1.3-0.4-2.6l-0.3-2.2q0-0.4-0.2-0.5-0.2-0.1-0.4-0.1-0.3 0-0.5 0.2-0.1 0.2-0.1 0.4 0 2.4 0.4 4.8 0.4 2.4 1.3 4.4 0.9 1.9 2.3 3.1 1.2 1.2 2.9 1.2z" />
			<path
				d="m308.9 117.6q-2.4 0-4-1.7-1.6-1.7-2.7-3.8-0.7-1.2-1.5-2.3-0.8-1.2-1.8-2-0.9-0.7-1.9-0.7-0.9 0-2.1 0.9-1.2 0.9-2.2 2-1 1.1-1.5 2l-0.4-0.2 0.4 0.1q-0.2 0.8-0.3 2-0.1 1.2-0.4 2.2-0.3 1.1-1.3 1.1-0.5 0-1-0.4-0.5-0.4-0.5-1 0-0.7 0-1.4 0-0.7 0.1-1.4 0-0.6 0-1.3v-1.4q0-1.4-0.2-2.9-0.2-1.4-0.7-2.3-0.4-0.7-1.4-0.7-1.6 0-2.7 0.6-1.1 0.7-2 1.9-0.9 1.2-1.8 2.6-0.9 1.4-2.2 2.8-0.4 0.4-0.9 0.4-0.5 0-0.9-0.3-0.6-0.3-0.6-1 0-0.2 0-0.5 0.1-0.2 0.4-0.6l0.3 0.2-0.3-0.2q1.7-2.6 3.2-4.5 1.6-2 3.3-3.1 1.8-1.1 4.2-1.1 2.7 0 3.9 2.1 1.2 2 1.3 5.4h-0.4l-0.3-0.2q1.3-1.6 2.9-3 1.6-1.6 4.1-1.6 2.4 0 4.1 1.8 1.6 1.6 2.8 3.7l-0.4 0.2 0.4-0.3q0.8 1.3 1.6 2.5 0.8 1.1 1.7 1.9 0.8 0.7 1.7 0.7 1.6 0 2.5-1 1-1 2.4-3.1l0.4 0.2-0.4-0.2q0.3-0.8 1.3-0.8 0.7 0 1.1 0.5 0.3 0.5 0.3 1 0 0.4-0.1 0.6-1.3 2-3 3.8-1.8 1.8-4.5 1.8zm0-0.8q2.3 0 3.9-1.6 1.7-1.7 2.9-3.6l0.3 0.2-0.3-0.2q0 0 0-0.2 0-0.3-0.2-0.5-0.1-0.2-0.4-0.2-0.4 0-0.6 0.3v0.1q-1.4 2.2-2.5 3.3-1.2 1.2-3.1 1.2-1.2 0-2.3-0.9-1-0.8-1.8-2.1-0.8-1.2-1.6-2.4-1.1-2-2.7-3.6-1.5-1.5-3.5-1.5-2.2 0-3.6 1.3-1.5 1.4-2.8 3l-0.7 0.8v-1.1q-0.1-3.2-1.2-5-1-1.7-3.2-1.7-2.1 0-3.7 1-1.7 1.1-3.2 2.9-1.5 1.9-3.2 4.5-0.2 0.2-0.2 0.3 0 0.1 0 0.3 0 0.3 0.2 0.3 0.2 0.2 0.5 0.2 0.1 0 0.3-0.2l0.3 0.3-0.3-0.3q1.2-1.3 2.1-2.7 0.9-1.4 1.8-2.6 1-1.3 2.3-2 1.3-0.8 3.1-0.8 1.4 0 2.1 1.1 0.6 1.1 0.8 2.6 0.2 1.5 0.2 3v1.4q0 0.7 0 1.4-0.1 0.6-0.1 1.3 0 0.7 0 1.4 0 0.2 0.2 0.4 0.3 0.2 0.5 0.2 0.4 0 0.6-0.6 0.2-0.8 0.3-2 0.1-1.2 0.3-2.1l0.1-0.1q0.5-0.9 1.6-2.1 1.1-1.2 2.4-2.2 1.3-1 2.5-1 1.3 0 2.4 0.9 1 0.8 1.9 2.1 0.9 1.2 1.6 2.5 1.1 1.9 2.6 3.5 1.4 1.5 3.4 1.5z" />
			<path
				d="m323.4 118q-3.6 0-5.9-2-2.3-2-3.7-5.2-0.8-2-1.4-4.4-0.6-2.4-0.9-4.8-0.3-2.4-0.4-4.6l0.4-0.1-0.1 0.4q-1 0-1.9-0.1-0.9 0-1.8-0.4l0.2-0.4-0.1 0.4q-0.3 0-0.5-0.3-0.2-0.3-0.2-0.6 0.1-0.8 0.8-0.9 0.8-0.1 1.7-0.2 0.8 0 1.7 0v0.4h-0.4q0-0.5 0-1.5-0.1-1.1-0.1-2.4-0.1-1.3-0.1-2.5-0.1-1.2-0.1-1.9 0.1-0.8 0.8-1.2 0.7-0.5 1.5 0.1l0.1 0.1v0.2q0.7 3.6 0.9 9h-0.4v-0.4q1.4 0.1 2.7 0.1h7.9q0.8 0.1 0.9 0.9 0.2 0.7-0.4 1.1-1.2 0.6-3.5 0.6h-7.5v-0.4h0.4q0.2 3.2 0.8 6.5 0.6 3.2 1.6 6 1.1 2.6 2.7 4.2 1.6 1.6 3.8 1.6 1.5 0 2.5-0.7 1.1-0.7 1.9-1.8 0.9-1.1 1.6-2.2 0.6-0.7 1.2-0.7 0.6 0 0.9 0.3h0.1q0.9 0.9 0.2 1.9l-0.3-0.2 0.4 0.2q-0.6 1.2-1.8 2.6-1.2 1.4-2.8 2.3-1.6 1-3.4 1zm0-0.8q1.6 0 3-0.8 1.5-0.9 2.6-2.2 1.1-1.4 1.6-2.5h0.1q0.3-0.5-0.2-0.9l0.3-0.3-0.3 0.3q-0.1-0.1-0.4-0.1-0.2 0-0.6 0.4l-0.3-0.3 0.4 0.3q-0.7 1-1.6 2.2-0.9 1.2-2.1 2-1.3 0.8-3 0.8-2.6 0-4.4-1.8-1.7-1.7-2.8-4.5-1.1-2.8-1.7-6.2-0.6-3.3-0.8-6.6v-0.4h7.9q2.1 0 3.1-0.6l0.2 0.4-0.2-0.3q0.1-0.1 0-0.3 0-0.2-0.2-0.2l0.1-0.4v0.4h-7.9q-1.3 0-2.8-0.1h-0.3v-0.4q-0.2-5.3-0.9-8.9l0.4-0.1-0.2 0.4q-0.3-0.3-0.6-0.1-0.3 0.2-0.3 0.5 0 0.7 0 1.9 0 1.1 0.1 2.5 0 1.3 0.1 2.3 0 1.1 0 1.5l0.1 0.5h-0.5q-0.9 0-1.7 0-0.8 0.1-1.6 0.2l-0.1-0.4 0.1 0.4q0 0-0.1 0.2 0 0 0 0 0 0 0 0 0 0 0 0 0 0 0 0h0.1q0.8 0.4 1.6 0.4 0.8 0.1 1.9 0.1h0.3l0.1 0.4q0.1 2.2 0.4 4.6 0.3 2.4 0.8 4.7l-0.3 0.1 0.3-0.1q0.7 2.3 1.4 4.3l-0.3 0.1 0.3-0.2q1.3 3.1 3.5 5 2.1 1.8 5.4 1.8z" />
			<path
				d="m333.9 156.7q-3.2 0-5.6-2.2-2.3-2.2-2.3-5.8 0-3.6 1.2-6.7 1.2-3 3.2-5.8 2-2.8 4.3-5.3l0.3 0.2-0.3-0.2q1.2-1.3 2.9-3.1 1.7-1.8 3.5-3.5 1.8-1.7 3.1-2.8l0.2 0.3h-0.4l-0.1-3.9q-0.1-0.9-0.2-1.9-0.1-1-0.3-2.1h0.4 0.4q-0.3 2.3-1.2 4.4-1 2.1-2.6 3.4-1.7 1.4-4.1 1.4-3.2 0-5.4-2.1-2.2-2.1-2.2-6.1 0-1.1 0-2.1 0-1.2 0.4-1.9l0.4 0.2-0.4-0.2q0.5-1.1 1.5-1.1 0.9 0 1.1 0.8 0.3 0.6 0.1 1.1-0.3 1-0.3 1.6v1.6q0 2.1 1.3 3.8 1.2 1.6 3.5 1.6 1.5 0 2.7-1.2 1.2-1.2 2-3.1 0.9-1.9 1.4-4.1 0.4-2.3 0.4-4.2 0-0.6 0.3-0.9 0.4-0.4 1-0.4 0.2 0 0.6 0.1 0.6 0.1 0.9 1.1 0.3 1.4 0.5 3.8 0.3 2.3 0.4 4.7l0.3 4.1h-0.4l-0.3-0.3q2.4-2 4.8-4.4 2.4-2.3 4.5-5l0.4 0.3-0.4-0.2q0.1-0.2 0.4-0.4 0.3-0.3 0.8-0.3 0.3 0 0.8 0.3 0.6 0.4 0.6 1.1 0 0.4-0.3 0.7v0.1q-1.2 1.9-3.1 3.8-1.9 1.9-4 3.7-2 1.9-3.8 3.6l-0.3-0.3h0.4q0 1.1 0.1 2.4 0 1.3 0 3 0 2.7-0.2 5.8-0.1 3.1-0.6 6.3-0.6 3.1-1.4 6-0.9 3-2.4 5.2-1.4 2.3-3.5 3.7-2.1 1.4-5 1.4zm0-0.8q2.6 0 4.5-1.3 2-1.2 3.3-3.4 1.4-2.2 2.3-5 0.9-2.8 1.4-5.9 0.4-3.2 0.6-6.3 0.2-3.1 0.2-5.7 0-1.7 0-3-0.1-1.3-0.1-2.4v-0.1l0.1-0.2q1.8-1.7 3.9-3.6 2-1.8 3.9-3.7 1.8-1.8 3.1-3.7l0.3 0.2-0.4-0.2q0.2-0.2 0.2-0.3 0-0.3-0.2-0.4-0.3-0.2-0.4-0.2-0.2 0-0.3 0.1-0.2 0.1-0.2 0.2-2.2 2.7-4.6 5.1-2.5 2.4-4.9 4.4l-0.6 0.6-0.3-5q-0.1-2.4-0.4-4.7-0.2-2.3-0.5-3.6l0.4-0.1-0.4 0.1q-0.1-0.3-0.2-0.4 0-0.1 0-0.1-0.3 0-0.5 0-0.3 0-0.4 0-0.1 0.1-0.1 0.4 0 2-0.4 4.3-0.5 2.4-1.4 4.4-1 2-2.3 3.3-1.4 1.4-3.2 1.4-2.7 0-4.2-1.9-1.4-1.9-1.4-4.3v-1.6q0-0.8 0.3-1.8 0.1-0.3 0-0.6-0.1-0.2-0.4-0.2-0.5 0-0.8 0.5v0.1q-0.3 0.5-0.3 1.5 0 1 0 2.1 0 3.6 1.9 5.5 2 1.9 4.9 1.9 2.1 0 3.6-1.2 1.4-1.2 2.3-3.1 1-2 1.2-4.2h0.8q0.2 1.2 0.3 2.1 0.1 1 0.2 2l0.1 4.1-0.1 0.1q-1.2 1.1-3 2.8-1.8 1.7-3.5 3.5-1.7 1.7-2.9 3-2.2 2.5-4.2 5.2-2 2.8-3.2 5.7-1.1 3-1.1 6.4 0 3.3 2.1 5.2 2.1 2 5 2zm0-1.2q-2.5 0-4.2-1.5-1.7-1.5-1.7-4.5 0-2.3 0.8-4.6 0.7-2.3 2-4.5 0.6-1.2 1.3-2.2 0.7-1.1 1.6-2.1l0.3 0.2-0.3-0.2q1.6-2.1 3.4-4.1 1.8-1.9 3.7-3.7 0.9-0.9 1.7-1.7 0.9-0.8 1.7-1.6l0.7-0.6v6.1q0 3.1-0.3 6.5-0.3 3.3-0.9 6.6-0.6 3.2-1.8 5.9-1.2 2.6-3.2 4.3-1.9 1.7-4.8 1.7zm0-0.8q2.6 0 4.3-1.5 1.8-1.6 3-4.1 1.1-2.5 1.7-5.7 0.6-3.2 0.9-6.5 0.3-3.3 0.3-6.4v-5.2h0.4l0.3 0.3q-0.9 0.8-1.7 1.6-0.9 0.8-1.8 1.7-1.8 1.7-3.6 3.7-1.8 1.9-3.4 4-0.8 1-1.5 2-0.7 1.1-1.3 2.2-1.2 2.1-2 4.3-0.7 2.3-0.7 4.4 0 2.6 1.4 3.9 1.5 1.3 3.7 1.3z" />
			<path
				d="m365.6 120.7q-1.3 0-2.7-0.7-1.6-0.9-1.6-2.6 0-2.1 1.3-3.4 1.3-1.3 3.4-2 2.1-0.7 4.3-0.7v0.4l-0.4-0.2q0.2-0.7 0.2-1.8 0-1.2-0.4-2.8-0.5-1.7-1.2-3.4-0.7-1.6-1.5-2.7-0.7-1-1.1-1 0.1 0 0.2 0-0.1 0-0.1 0-0.2 0.2-0.4 0.5-0.5 0.7-1.1 1.7-0.7 1-1.3 1.9-0.6 1-1 1.5l-1.6 2.6-1.8 2.6q-0.8 1.3-1.2 1.7-0.4 0.4-1 0.4-0.9 0-1.2-0.6-0.2-0.5-0.2-0.8 0-0.6 0.3-0.9l0.2 0.3-0.3-0.2q0.8-1.1 1.9-2.6 1-1.5 2-3.1 1-1.5 1.7-2.7 0.8-1.1 1.5-2.2 0.8-1.2 1.6-2 0.9-0.8 1.6-0.8 1.4 0 2.7 1.3 1.3 1.2 2.3 3.1 1.1 2 1.7 4.1 0.6 2.2 0.6 4.1 0 0.4 0 1-0.1 0.6-0.1 1h-0.4v-0.4h0.7q0.1 0 0.1 0h0.3q0.9 0 1.8-0.2 0.8-0.2 1.4-0.8l0.3 0.3-0.3-0.3q0.4-0.4 0.9-0.4 0.8 0 1.2 0.5 0.3 0.4 0.3 1 0 1.1-1.2 1.8-1 0.5-2.3 0.7-1.2 0.2-2.1 0.2h-1.4v-0.4l0.4 0.1q-0.5 1.7-1.4 3.2-0.8 1.6-2.2 2.7-1.4 1-3.4 1zm0-0.8q1.7 0 2.9-0.9 1.3-0.9 2-2.4 0.8-1.5 1.3-3l0.1-0.3h1.7q0.8 0 2-0.2 1.1-0.1 2-0.6 0.8-0.4 0.8-1.1 0-0.3-0.2-0.5-0.1-0.2-0.5-0.2-0.1 0-0.3 0.2-0.8 0.7-1.8 1-1 0.2-2 0.2h-0.3q-0.2 0-0.4-0.1l0.2-0.3v0.4h-1.1l0.1-0.5q0-0.4 0.1-0.9 0-0.6 0-1 0-1.8-0.6-3.9-0.6-2-1.6-3.9-1-1.8-2.1-2.9-1.1-1.1-2.2-1.1-0.4 0-1 0.6-0.8 0.7-1.5 1.8-0.8 1.1-1.5 2.2l-0.3-0.2 0.3 0.2q-0.7 1.2-1.7 2.8-1 1.5-2.1 3.1-1 1.5-1.8 2.6h-0.1q0 0.1 0 0.3 0 0.1 0.1 0.4 0.1 0.2 0.5 0.2 0.3 0 0.5-0.2l0.2 0.3-0.3-0.2q0.3-0.4 1.1-1.6l1.8-2.7 1.7-2.5q0.3-0.5 0.9-1.5 0.7-1 1.3-2 0.7-0.9 1.2-1.6 0.2-0.4 0.4-0.6 0.3-0.3 0.5-0.3 0.9 0 1.8 1.3 0.8 1.2 1.5 2.9 0.8 1.7 1.3 3.5 0.4 1.7 0.4 3 0 1.3-0.2 2.1l-0.1 0.3h-0.3q-2.1 0-4 0.6-1.9 0.7-3.1 1.8-1.1 1.1-1.1 2.9 0 1.2 1.1 1.9 1.3 0.6 2.4 0.6zm0-1q-2.3 0-2.3-1.5 0-1.8 1.1-2.7 1.1-0.8 2.7-1.1 1.5-0.2 3-0.3h0.5l-0.1 0.5q-0.5 2-1.6 3.5-1.2 1.6-3.3 1.6zm0-0.8q1.7 0 2.6-1.3 1.1-1.4 1.5-3.2l0.4 0.1v0.4q-1.4 0.1-2.9 0.3-1.4 0.3-2.3 1-0.8 0.6-0.8 2 0 0.7 1.5 0.7z" />
			<path
				d="m11.2 120.3q-1.2 0-2.5-0.7-1.4-0.7-1.4-2.2 0-1.9 1.2-3.2 1.2-1.2 3.2-1.8 2-0.7 4.2-0.7 0.2-0.8 0.2-2 0-1.2-0.4-2.9-0.5-1.8-1.2-3.4-0.8-1.7-1.6-2.9-0.8-1.1-1.4-1.1-0.1 0-0.6 0.7-0.5 0.7-1.2 1.7-0.6 1-1.2 1.9-0.6 1-1 1.5-0.7 1.1-1.7 2.5-0.9 1.5-1.8 2.7-0.8 1.3-1.1 1.6-0.3 0.3-0.7 0.3-0.6 0-0.8-0.4-0.2-0.4-0.2-0.6 0-0.4 0.2-0.6 0.8-1 1.8-2.6 1-1.5 2.1-3 1-1.6 1.7-2.8 0.7-1.1 1.4-2.2 0.8-1.1 1.6-1.9 0.7-0.7 1.3-0.7 1.2 0 2.5 1.2 1.2 1.2 2.2 3 1 1.9 1.6 4 0.6 2.2 0.6 4 0 0.4 0 1-0.1 0.5-0.1 1h0.6q0.1 0 0.2 0 0.2 0 0.3 0 1 0 1.9-0.2 0.9-0.3 1.6-0.9 0.3-0.3 0.7-0.3 0.5 0 0.8 0.3 0.2 0.4 0.2 0.8 0 0.9-1 1.4-0.9 0.6-2.1 0.7-1.2 0.2-2.1 0.2h-0.8q-0.3 0-0.4 0-0.2 0-0.2 0-0.5 1.6-1.3 3.1-0.8 1.6-2.1 2.5-1.3 1-3.2 1zm0-1.8q1.9 0 3-1.5 1.1-1.4 1.5-3.3-1.4 0.1-2.9 0.3-1.5 0.3-2.5 1.1-1 0.7-1 2.3 0 1.1 1.9 1.1z" />
			<path
				d="m39.2 119.9q-1.8 0-2.9-1.2-1.1-1.2-1.7-3.1-0.5-1.8-0.8-3.5-0.4 1.6-1.3 3-0.9 1.5-2.2 2.4-1.3 1-3 1-2.8 0-4-3.1-1.2-3.1-0.5-7.9 0.1-0.9 0.3-1 0.1-0.1 0.8-0.1 1 0 1 0.8 0 1.2-0.1 2-0.2 1-0.2 2.2 0 2 0.6 3.6 0.6 1.5 2.1 1.5 1.4 0 2.6-1.4 1.1-1.4 2-3.6 0.2-0.7 0.4-1.2 0.2-0.5 0.3-0.8 0.2-0.6 0.9-0.6 0.6 0 1.2 0.2 0.6 0.3 0.9 1.1 0.2 1.5 0.6 3.3 0.3 1.8 1 3.1 0.7 1.3 2 1.3 2 0 3.5-1.2 1.5-1.1 2.7-2.8 1.2-1.6 2.2-3.1 0.2-0.3 0.4-0.4 0.3-0.1 0.5-0.1 0.4 0 0.7 0.3 0.3 0.3 0.3 0.6 0 0.4-0.2 0.8-1.1 1.6-2.6 3.5-1.5 1.9-3.3 3.1-1.8 1.3-4.2 1.3z" />
			<path
				d="m56.8 117.6q-3.4 0-5.6-1.9-2.3-2-3.6-5.1-0.8-1.9-1.4-4.3-0.6-2.3-0.9-4.7-0.2-2.4-0.4-4.7-1.1 0-1.9-0.1-0.9-0.1-1.7-0.4-0.4 0-0.4-0.5 0.1-0.4 0.4-0.5 0.9-0.1 1.7-0.2 0.8 0 1.8 0-0.1-0.5-0.1-1.6-0.1-1-0.1-2.3-0.1-1.3-0.1-2.5 0-1.2 0-1.9 0-0.5 0.5-0.8 0.5-0.4 1.1 0 0.7 3.7 0.8 9 1.4 0.1 2.8 0.1 1.3 0 2.5 0h5.3q0.4 0 0.5 0.5 0.1 0.5-0.2 0.7-1.1 0.6-3.3 0.6h-7.4q0.1 3.2 0.7 6.5 0.6 3.4 1.7 6.1 1.1 2.8 2.7 4.4 1.7 1.7 4.1 1.7 1.6 0 2.7-0.7 1.2-0.8 2.1-2 0.8-1.1 1.6-2.2 0.4-0.5 0.8-0.5 0.4 0 0.7 0.2 0.7 0.7 0.2 1.4-0.6 1.2-1.7 2.5-1.2 1.4-2.7 2.3-1.5 0.9-3.2 0.9z" />
			<path
				d="m72.3 116q-3.4 0-6.1-1.5-2.8-1.5-4.4-4-1.7-2.5-1.7-5.5 0-3.7 1.7-5.8 1.6-2.1 4.3-2.1 1.9 0 3.1 1.3 1.3 1.2 1.3 3.1 0 1.5-0.7 3.4-0.8 1.8-1.9 3.5-1.1 1.7-2.4 3.1 1.2 1.1 2.8 1.8 1.7 0.7 4 0.7 1.6 0 3.2-0.9 1.5-1 2.7-2.3 0.5-0.5 0.9-0.5 0.4 0 0.7 0.3 0.3 0.4 0.3 0.7 0 0.4-0.2 0.7-1.9 1.9-3.6 3-1.7 1-4 1zm-8.2-5.8q0.8-1 1.8-2.5 1-1.5 1.8-3.1 0.8-1.7 0.8-3.1 0-2.5-2.4-2.5-1.5 0-2.4 1-0.9 0.9-1.2 2.3-0.3 1.4-0.3 2.7 0 1.6 0.5 2.9 0.6 1.3 1.4 2.3z" />
			<path
				d="m88.6 123.5q-2.3 0-4.1-1.4-1.8-1.4-3.2-3.7-1.5-2.3-2.5-5.3-1.1-3-1.8-6.2-0.7-2.5-1-4.6-0.3-2.2-0.5-4.4-0.1-1.1-0.1-2.8-0.1-1.6-0.1-3.4 0-1.7 0-3.2 0-2 0.1-4.6 0.2-2.6 0.6-5.3 0.4-1.8 1-3.6 0.6-1.7 1.6-2.8 1-1.1 2.6-1.1 1.5 0 2.5 1.4 0.9 1.4 1.4 3.6 0.5 2.3 0.7 4.9 0.1 2.6 0.1 4.9 0 4.9-0.3 9.2-0.3 4.4-1.4 8.4-1.2 3.9-3.7 7.9 0.4 1.5 1.2 3.3 0.8 1.7 1.8 3.3 1 1.5 2.3 2.5 1.3 1 2.8 1 1.7 0 3.3-1.1 1.7-1.2 3.2-2.9 1.6-1.7 2.8-3.5 1.3-1.9 2.2-3.2 0.3-0.5 0.9-0.5 0.4 0 0.7 0.3 0.3 0.2 0.3 0.7 0 0.2-0.2 0.5l-0.3 0.7q-1.1 1.6-2.4 3.4-1.3 1.9-2.8 3.6-1.6 1.8-3.5 2.9-1.9 1.1-4.2 1.1zm-9.1-14.5q2.2-3.9 3.1-7.4 0.9-3.5 1.1-7.3 0.2-3.8 0.2-8.4 0-1.5-0.1-3.6-0.1-2.2-0.5-4.3-0.3-2.1-0.8-3.5-0.5-1.4-1.3-1.4-0.8 0-1.5 0.9-0.6 0.9-1 2.4-0.4 1.4-0.6 2.9-0.4 2.3-0.6 4.9-0.2 2.5-0.2 4.3 0 5 0.4 10.3 0.4 5.3 1.8 10.2z" />
			<path
				d="m115.4 121q-1.9 0-4-1.1-2.2-1.2-3.8-2.6-1.5-1.3-2.8-2.9-1.3-1.7-1.3-2.8 0-1.1 1.8-1.6 1.5-0.5 3-1.5 1.5-1.1 2.6-2.4 1.1-1.3 1.1-2.7 0-0.4-0.2-0.7-0.1-0.2-0.4-0.2-0.7 0-1.6 0.5-0.9 0.6-1.8 1.5-0.9 0.8-1.7 1.6-0.7 0.8-1.5 1.8-0.8 1-1.5 1.8-0.7 0.9-1.1 1.4 0.2 1.3 0.5 3.2 0.3 1.9 0.6 3.4v0.2q0 0 0 0 0 0 0 0.1 0 0.9-1 0.9-0.9 0-1.1-1-0.9-5-1.6-10.3-0.7-5.2-0.7-11.1 0-2.4 0.2-5.5 0.2-3 0.8-6.1 0.6-3 2.2-5.3 1.5-2.3 4.2-2.3 3.8 0 5.3 2.6 1.5 2.5 1.5 6.1 0 3.7-0.9 6.6-0.9 2.9-2.4 5.5-1.5 2.6-3.4 5.6 0.6-0.6 1.7-1.4 1.1-0.7 2.2-1.3 1.2-0.6 2.1-0.6 0.8 0 1.3 0.6 0.5 0.7 0.5 1.7 0 2-1.4 3.9-1.3 1.8-3.3 3.2-2 1.3-4 1.8 0.4 1 1.4 2.3 1 1.2 2.5 2.4 1.5 1.1 3 1.9 1.6 0.7 3 0.7 1.8 0 3.3-1.1 1.5-1.2 2.8-2.9 1.3-1.8 2.2-3.4 0.3-0.4 0.6-0.8 0.2-0.4 0.7-0.4 0.5 0 0.8 0.3 0.3 0.4 0.3 0.7 0 0.2-0.1 0.3-0.1 0.2-0.1 0.3-1.4 2.1-2.9 4.2-1.4 2.1-3.2 3.5-1.8 1.4-4.4 1.4zm-13.5-12.6q0.6-1 1.4-2.4 0.8-1.3 1.6-2.7 0.8-1.3 1.3-2.3 1.1-1.9 2-3.9 1-1.9 1.7-4.2 0.3-1.1 0.7-3.1 0.4-1.9 0.4-3.9 0-2.6-1.1-4.6-1.1-1.9-3.5-1.9-1.8 0-2.9 1.6-1 1.7-1.5 3.9-0.3 1.3-0.5 3.1-0.1 1.7-0.2 3.5-0.1 1.7-0.1 3 0 4 0.1 7.6 0.2 3.6 0.6 6.3z" />
			<path
				d="m133.3 117.6q-3.4 0-5.6-1.9-2.2-2-3.6-5.1-0.7-1.9-1.4-4.3-0.5-2.3-0.8-4.7-0.3-2.4-0.5-4.7-1 0-1.9-0.1-0.8-0.1-1.7-0.4-0.4 0-0.3-0.5 0.1-0.4 0.4-0.5 0.8-0.1 1.7-0.2 0.8 0 1.7 0-0.1-0.5-0.1-1.6 0-1-0.1-2.3 0-1.3 0-2.5-0.1-1.2-0.1-1.9 0-0.5 0.5-0.8 0.6-0.4 1.1 0 0.7 3.7 0.8 9 1.5 0.1 2.8 0.1 1.3 0 2.5 0h5.3q0.5 0 0.6 0.5 0.1 0.5-0.2 0.7-1.1 0.6-3.4 0.6h-7.4q0.2 3.2 0.7 6.5 0.6 3.4 1.7 6.1 1.1 2.8 2.8 4.4 1.6 1.7 4.1 1.7 1.5 0 2.7-0.7 1.1-0.8 2-2 0.9-1.1 1.6-2.2 0.5-0.5 0.8-0.5 0.5 0 0.7 0.2 0.7 0.7 0.3 1.4-0.6 1.2-1.8 2.5-1.1 1.4-2.6 2.3-1.5 0.9-3.3 0.9z" />
			<path
				d="m147.3 119.4q-3.9 0-6-2.3-2.2-2.3-2.2-5.6 0-2.1 1-4.1 1-1.9 2.8-3.1 1.7-1.3 3.9-1.3 0.5 0 1.5 0.2 0.9 0.2 1.8 0.7 0.9 0.4 0.9 1 3.4 2 3.6 7 0.7 0.2 1.7 0.2 0.9 0.1 1.5 0.1 1.3 0 1.8-0.5 0.5-0.4 1.5-1.1 0.3-0.3 0.7-0.3 0.5 0 0.8 0.3 0.2 0.4 0.2 0.7 0 0.4-0.2 0.7-0.8 1.2-2.2 1.7-1.3 0.5-2.6 0.5-2.2 0.1-3.4-0.2-0.5 2.6-2.2 4-1.7 1.4-4.9 1.4zm0-2q4.5 0 5.1-3.8-1.6-0.3-3.5-1.1-1.8-0.8-3.1-2-1.2-1.2-1.2-2.5 0-1.4 0.9-2.1 0.8-0.7 1.3-0.9-1.4 0-2.7 1-1.3 0.9-2.1 2.4-0.8 1.4-0.8 3.1 0 2.9 1.9 4.4 1.9 1.5 4.2 1.5zm5.3-5.8q-0.1-1.8-1-3.3-0.9-1.5-1.9-2.1-0.9 0-1.9 0.5-1 0.4-1 1.3 0 0.8 1 1.6 1.1 0.8 2.4 1.3 1.4 0.5 2.4 0.7z" />
			<path
				d="m170.9 120.3q-1.2 0-2.6-0.7-1.4-0.7-1.4-2.2 0-1.9 1.3-3.2 1.2-1.2 3.2-1.8 2-0.7 4.2-0.7 0.2-0.8 0.2-2 0-1.2-0.5-2.9-0.4-1.8-1.2-3.4-0.7-1.7-1.5-2.9-0.8-1.1-1.4-1.1-0.2 0-0.7 0.7-0.5 0.7-1.1 1.7-0.7 1-1.3 1.9-0.6 1-0.9 1.5-0.7 1.1-1.7 2.5-1 1.5-1.8 2.7-0.8 1.3-1.1 1.6-0.3 0.3-0.8 0.3-0.5 0-0.8-0.4-0.2-0.4-0.2-0.6 0-0.4 0.2-0.6 0.8-1 1.9-2.6 1-1.5 2-3 1-1.6 1.7-2.8 0.8-1.1 1.5-2.2 0.8-1.1 1.5-1.9 0.8-0.7 1.4-0.7 1.2 0 2.4 1.2 1.2 1.2 2.2 3 1.1 1.9 1.7 4 0.6 2.2 0.6 4 0 0.4-0.1 1 0 0.5-0.1 1h0.6q0.1 0 0.3 0 0.2 0 0.3 0 1 0 1.9-0.2 0.9-0.3 1.6-0.9 0.3-0.3 0.6-0.3 0.6 0 0.8 0.3 0.3 0.4 0.3 0.8 0 0.9-1 1.4-1 0.6-2.2 0.7-1.2 0.2-2 0.2h-0.8q-0.3 0-0.5 0-0.1 0-0.2 0-0.4 1.6-1.3 3.1-0.8 1.6-2.1 2.5-1.3 1-3.1 1zm0-1.8q1.8 0 2.9-1.5 1.1-1.4 1.6-3.3-1.5 0.1-3 0.3-1.5 0.3-2.4 1.1-1 0.7-1 2.3 0 1.1 1.9 1.1z" />
			<path
				d="m235.6 118.2q-0.5 0-0.8-0.3-0.2-0.4-0.6-1.5-0.4-1.1-0.9-2.6-0.4-1.5-0.9-3-0.5-1.5-0.8-2.7-0.6-1.7-1.3-3.6-0.8-1.9-1.7-3.2-0.9-1.3-1.7-1.3-0.5 0-1.2 0.9-0.8 0.9-1.5 2.2-0.8 1.3-1.5 2.7-0.7 1.3-1.2 2.3-0.4 0.9-1.1 2.3-0.7 1.4-1.5 2.7-0.8 1.4-1.6 2.3-0.7 0.8-1.2 0.8-1.1 0-1.1-1v-0.2q0-0.2 0.1-0.2 0.2-0.5 0.5-1.8 0.3-1.3 0.5-3 0.3-1.7 0.4-3.4 0.2-1.7 0.2-3 0-1.5-0.2-2.4-0.3-1-0.8-1-0.4 0-1.2 0.8-0.7 0.7-1.5 1.7-0.7 1-1.4 1.9-0.6 0.9-1.4 2.3-0.9 1.3-1.7 2.7-0.8 1.4-1.4 2.2-0.2 0.3-0.4 0.4-0.2 0.1-0.5 0.1-0.4 0-0.7-0.3-0.3-0.3-0.3-0.7 0-0.3 0.2-0.5 0.4-0.8 1.2-2.2 0.8-1.4 1.8-2.9 1-1.5 1.8-2.6 0.9-1.2 2-2.4 1.1-1.1 2.1-1.9 1.1-0.8 2-0.8 1 0 1.5 0.9 0.6 0.8 0.8 2.1 0.2 1.4 0.2 2.8 0 1.9-0.2 3.6-0.2 1.8-0.6 2.9 0.4-0.6 1.1-1.9 0.6-1.4 1.3-2.9 0.7-1.5 1.3-2.5 0.9-1.8 2.2-3.4 1.3-1.6 3-1.6 1.1 0 2.1 1 0.9 1 1.8 2.5 0.8 1.4 1.5 2.9 0.6 1.2 1.1 2.9 0.6 1.7 1.2 3.3 0.6 1.6 0.9 2.5 0.3-0.8 0.7-2.2 0.3-1.4 0.7-2.9 0.5-1.5 0.9-2.9 0.3-1.3 0.6-2.1 0.7-2.2 1.9-4 1.3-1.8 3.1-1.8 1.9 0 3.4 1.1 1.6 1.1 2.8 2.8 1.2 1.8 2.3 3.6 1 1.9 2.2 3.7 1.2 1.7 2.7 2.9 1.5 1.1 3.4 1.1 0.7 0 1.4-0.3 0.7-0.4 1.2-1.3 0.4-0.5 0.9-0.5 0.4 0 0.7 0.2 0.4 0.3 0.4 0.8 0 0.2-0.2 0.5-0.9 1.5-2 2-1.1 0.6-2.4 0.6-2.2 0-3.9-1.2-1.8-1.1-3.1-2.8-1.3-1.7-2.5-3.7-1-1.7-2.2-3.5-1.1-1.7-2.4-2.8-1.2-1.2-2.7-1.2-0.9 0-1.6 1-0.6 1.1-1.2 2.8-0.6 1.6-1.1 3.3-0.3 1.5-1 3.8-0.5 2.2-1.1 4.3-0.6 2.1-1 3.1-0.1 0.4-0.3 0.5-0.1 0.2-0.5 0.2z" />
			<path
				d="m262.9 93.9q-0.9 0-1.1-0.7-0.3-0.7-0.1-1.4 0.4-1.2 2-1.2 0.6 0 1 0.5 0.3 0.5 0.3 1 0 0.8-0.6 1.3-0.6 0.5-1.5 0.5zm6 23.9q-1.8 0-3.2-1.3-1.4-1.2-2.3-3.3-1-2-1.4-4.5-0.5-2.4-0.5-4.8 0.1-0.4 0.3-0.7 0.3-0.3 0.8-0.3 0.4 0 0.7 0.2 0.3 0.2 0.3 0.8 0.1 0.8 0.3 2.1 0.2 1.3 0.4 2.6 0.3 1.4 0.5 2.3 0.5 1.8 1.5 3.2 1 1.4 2.6 1.4 1.2 0 2.3-0.8 1.1-0.7 2-1.8 1-1.1 1.7-2.1 0.4-0.5 0.9-0.5 0.5 0 0.7 0.3 0.3 0.4 0.3 0.8 0 0.3-0.2 0.6-0.9 1.3-2 2.6-1.1 1.3-2.6 2.3-1.4 0.9-3.1 0.9z" />
			<path
				d="m308.9 117.2q-2.2 0-3.7-1.6-1.5-1.6-2.6-3.6-0.8-1.3-1.6-2.5-0.8-1.2-1.8-2-1-0.8-2.2-0.8-1.1 0-2.3 0.9-1.2 0.9-2.3 2.1-1.1 1.2-1.6 2.1-0.2 0.9-0.3 2.1-0.1 1.2-0.4 2-0.2 0.9-0.9 0.9-0.4 0-0.8-0.3-0.3-0.3-0.3-0.7 0-0.7 0-1.4 0-0.7 0.1-1.3 0-0.7 0-1.4 0-0.7 0-1.5 0-1.3-0.2-2.8-0.2-1.5-0.7-2.4-0.6-1-1.8-1-1.7 0-2.9 0.7-1.2 0.7-2.1 1.9-1 1.3-1.9 2.7-0.9 1.4-2.1 2.7-0.3 0.3-0.6 0.3-0.4 0-0.7-0.2-0.4-0.2-0.4-0.7 0-0.2 0-0.4 0.1-0.2 0.3-0.5 1.7-2.5 3.2-4.4 1.5-2 3.3-3 1.7-1.1 3.9-1.1 2.4 0 3.6 1.9 1.1 1.9 1.2 5.2 1.3-1.5 2.8-3 1.5-1.4 3.9-1.4 2.2 0 3.8 1.7 1.6 1.6 2.8 3.6 0.7 1.2 1.5 2.4 0.8 1.2 1.8 2 0.9 0.8 2 0.8 1.8 0 2.8-1.1 1.1-1.1 2.5-3.2 0.2-0.6 0.9-0.6 0.5 0 0.8 0.4 0.2 0.3 0.2 0.7 0 0.3 0 0.4-1.3 2-3 3.7-1.7 1.7-4.2 1.7z" />
			<path
				d="m323.4 117.6q-3.4 0-5.7-1.9-2.2-2-3.5-5.1-0.8-1.9-1.5-4.3-0.5-2.3-0.8-4.7-0.3-2.4-0.4-4.7-1.1 0-1.9-0.1-0.9-0.1-1.7-0.4-0.4 0-0.4-0.5 0.1-0.4 0.4-0.5 0.9-0.1 1.7-0.2 0.8 0 1.8 0-0.1-0.5-0.1-1.6-0.1-1-0.1-2.3-0.1-1.3-0.1-2.5 0-1.2 0-1.9 0-0.5 0.5-0.8 0.5-0.4 1 0 0.8 3.7 0.9 9 1.4 0.1 2.7 0.1 1.4 0 2.6 0h5.3q0.4 0 0.5 0.5 0.1 0.5-0.2 0.7-1.1 0.6-3.3 0.6h-7.5q0.2 3.2 0.8 6.5 0.6 3.4 1.7 6.1 1.1 2.8 2.7 4.4 1.7 1.7 4.1 1.7 1.6 0 2.7-0.7 1.2-0.8 2-2 0.9-1.1 1.6-2.2 0.5-0.5 0.9-0.5 0.4 0 0.7 0.2 0.7 0.7 0.2 1.4-0.6 1.2-1.7 2.5-1.2 1.4-2.7 2.3-1.5 0.9-3.2 0.9z" />
			<path
				d="m333.9 156.3q-3.1 0-5.3-2.1-2.2-2.1-2.2-5.5 0-3.5 1.2-6.5 1.2-3 3.2-5.8 2-2.7 4.3-5.3 1.1-1.3 2.8-3 1.7-1.8 3.5-3.5 1.8-1.7 3-2.8l-0.1-3.9q-0.1-1-0.2-1.9-0.1-1-0.3-2.1-0.3 2.2-1.2 4.2-0.9 2.1-2.5 3.3-1.5 1.3-3.8 1.3-3.1 0-5.2-2-2-2-2-5.8 0-1.1 0-2.1 0-1.1 0.4-1.7 0.3-0.8 1.1-0.9 0.6 0 0.7 0.5 0.2 0.5 0.1 0.9-0.3 1-0.3 1.7v1.6q0 2.3 1.3 4 1.4 1.8 3.9 1.8 1.7 0 2.9-1.3 1.3-1.2 2.2-3.2 0.9-1.9 1.4-4.2 0.4-2.3 0.4-4.3 0-0.8 0.9-0.8 0.2 0 0.6 0 0.3 0.1 0.5 0.8 0.3 1.4 0.5 3.7 0.3 2.3 0.4 4.7 0.2 2.4 0.3 4.1 2.4-2 4.8-4.4 2.4-2.3 4.6-5 0-0.1 0.2-0.3 0.2-0.2 0.6-0.2 0.2 0 0.6 0.2 0.4 0.3 0.4 0.8 0 0.2-0.2 0.5-1.2 1.9-3.1 3.8-1.9 1.9-4 3.7-2 1.9-3.8 3.6 0.1 1.1 0.1 2.4 0 1.3 0 3 0 2.7-0.2 5.8-0.1 3.1-0.6 6.2-0.5 3.2-1.4 6-0.9 2.9-2.3 5.1-1.4 2.3-3.4 3.6-2.1 1.3-4.8 1.3zm0-2q2.7 0 4.5-1.6 1.9-1.6 3.1-4.2 1.2-2.6 1.8-5.8 0.6-3.2 0.9-6.6 0.3-3.3 0.3-6.4 0-3 0-5.2-0.8 0.8-1.7 1.6-0.8 0.8-1.8 1.7-1.8 1.8-3.6 3.7-1.8 1.9-3.4 4-0.8 1-1.5 2.1-0.7 1-1.4 2.2-1.2 2.1-1.9 4.4-0.8 2.3-0.8 4.5 0 2.8 1.6 4.2 1.5 1.4 3.9 1.4z" />
			<path
				d="m365.6 120.3q-1.2 0-2.5-0.7-1.4-0.7-1.4-2.2 0-1.9 1.2-3.2 1.2-1.2 3.2-1.8 2-0.7 4.2-0.7 0.2-0.8 0.2-2 0-1.2-0.4-2.9-0.5-1.8-1.2-3.4-0.8-1.7-1.6-2.9-0.8-1.1-1.4-1.1-0.1 0-0.6 0.7-0.5 0.7-1.2 1.7-0.6 1-1.2 1.9-0.6 1-1 1.5-0.7 1.1-1.7 2.5-0.9 1.5-1.8 2.7-0.8 1.3-1.1 1.6-0.3 0.3-0.7 0.3-0.6 0-0.8-0.4-0.2-0.4-0.2-0.6 0-0.4 0.2-0.6 0.8-1 1.8-2.6 1-1.5 2.1-3 1-1.6 1.7-2.8 0.7-1.1 1.4-2.2 0.8-1.1 1.6-1.9 0.7-0.7 1.3-0.7 1.2 0 2.5 1.2 1.2 1.2 2.2 3 1 1.9 1.6 4 0.6 2.2 0.6 4 0 0.4 0 1-0.1 0.5-0.1 1h0.6q0.1 0 0.2 0 0.2 0 0.3 0 1 0 1.9-0.2 0.9-0.3 1.6-0.9 0.3-0.3 0.7-0.3 0.5 0 0.8 0.3 0.2 0.4 0.2 0.8 0 0.9-1 1.4-0.9 0.6-2.1 0.7-1.2 0.2-2.1 0.2h-0.8q-0.3 0-0.4 0-0.2 0-0.2 0-0.5 1.6-1.3 3.1-0.8 1.6-2.1 2.5-1.3 1-3.2 1zm0-1.8q1.9 0 3-1.5 1.1-1.4 1.5-3.3-1.4 0.1-2.9 0.3-1.5 0.3-2.5 1.1-1 0.7-1 2.3 0 1.1 1.9 1.1z" />
		</g>
	</g>
</svg>